<?xml version="1.0" encoding="UTF-8"?>
<svg id="_レイヤー_1" data-name="レイヤー 1" xmlns="http://www.w3.org/2000/svg" xmlns:xlink="http://www.w3.org/1999/xlink" viewBox="0 0 121.74 53.33">
  <defs>
    <style>
      .cls-1 {
        fill: url(#_名称未設定グラデーション_35-7);
      }

      .cls-1, .cls-2, .cls-3, .cls-4, .cls-5, .cls-6, .cls-7, .cls-8, .cls-9, .cls-10, .cls-11, .cls-12, .cls-13, .cls-14, .cls-15, .cls-16, .cls-17, .cls-18, .cls-19, .cls-20, .cls-21, .cls-22 {
        isolation: isolate;
        opacity: .9;
      }

      .cls-2 {
        fill: url(#_名称未設定グラデーション_530-4);
      }

      .cls-3 {
        fill: url(#_名称未設定グラデーション_35-5);
      }

      .cls-4 {
        fill: url(#_名称未設定グラデーション_35-3);
      }

      .cls-23 {
        opacity: .29;
      }

      .cls-5 {
        fill: url(#_名称未設定グラデーション_35);
      }

      .cls-6 {
        fill: url(#_名称未設定グラデーション_530);
      }

      .cls-7 {
        fill: url(#_名称未設定グラデーション_530-10);
      }

      .cls-8 {
        fill: url(#_名称未設定グラデーション_530-3);
      }

      .cls-24 {
        fill: #fff;
      }

      .cls-9 {
        fill: url(#_名称未設定グラデーション_35-6);
      }

      .cls-10 {
        fill: url(#_名称未設定グラデーション_35-11);
      }

      .cls-25 {
        fill: url(#_名称未設定グラデーション_15);
      }

      .cls-11 {
        fill: url(#_名称未設定グラデーション_35-8);
      }

      .cls-12 {
        fill: url(#_名称未設定グラデーション_35-9);
      }

      .cls-13 {
        fill: url(#_名称未設定グラデーション_530-9);
      }

      .cls-26 {
        fill: url(#_名称未設定グラデーション_8);
      }

      .cls-14 {
        fill: url(#_名称未設定グラデーション_35-4);
      }

      .cls-15 {
        fill: url(#_名称未設定グラデーション_530-8);
      }

      .cls-16 {
        fill: url(#_名称未設定グラデーション_35-10);
      }

      .cls-27 {
        fill: url(#_名称未設定グラデーション_20);
      }

      .cls-17 {
        fill: url(#_名称未設定グラデーション_530-2);
      }

      .cls-18 {
        fill: url(#_名称未設定グラデーション_530-6);
      }

      .cls-19 {
        fill: url(#_名称未設定グラデーション_530-5);
      }

      .cls-20 {
        fill: url(#_名称未設定グラデーション_530-11);
      }

      .cls-21 {
        fill: url(#_名称未設定グラデーション_35-2);
      }

      .cls-22 {
        fill: url(#_名称未設定グラデーション_530-7);
      }
    </style>
    <linearGradient id="_名称未設定グラデーション_8" data-name="名称未設定グラデーション 8" x1="0" y1="33.4" x2="22.08" y2="33.4" gradientUnits="userSpaceOnUse">
      <stop offset="0" stop-color="#fff" stop-opacity="0"/>
      <stop offset=".99" stop-color="#fff"/>
    </linearGradient>
    <linearGradient id="_名称未設定グラデーション_20" data-name="名称未設定グラデーション 20" x1="47.73" y1="53.33" x2="47.73" y2="5.3" gradientUnits="userSpaceOnUse">
      <stop offset="0" stop-color="#fff" stop-opacity="0"/>
      <stop offset=".35" stop-color="#fff" stop-opacity=".39"/>
      <stop offset=".67" stop-color="#fff" stop-opacity=".72"/>
      <stop offset=".89" stop-color="#fff" stop-opacity=".92"/>
      <stop offset="1" stop-color="#fff"/>
    </linearGradient>
    <linearGradient id="_名称未設定グラデーション_15" data-name="名称未設定グラデーション 15" x1="99.48" y1="28.62" x2="121.29" y2="19.2" gradientUnits="userSpaceOnUse">
      <stop offset="0" stop-color="#fff"/>
      <stop offset="1" stop-color="#fff" stop-opacity="0"/>
    </linearGradient>
    <radialGradient id="_名称未設定グラデーション_35" data-name="名称未設定グラデーション 35" cx="66.76" cy="4.84" fx="66.76" fy="4.84" r="3.47" gradientTransform="translate(135.31 18.59) rotate(-180)" gradientUnits="userSpaceOnUse">
      <stop offset="0" stop-color="#fff" stop-opacity=".7"/>
      <stop offset=".17" stop-color="#fff" stop-opacity=".66"/>
      <stop offset=".46" stop-color="#fff" stop-opacity=".56"/>
      <stop offset=".83" stop-color="#fff" stop-opacity=".39"/>
      <stop offset="1" stop-color="#fff" stop-opacity=".3"/>
    </radialGradient>
    <radialGradient id="_名称未設定グラデーション_35-2" data-name="名称未設定グラデーション 35" cx="66.76" fx="66.76" r="3.47" gradientTransform="translate(61.12 80.8) rotate(-90)" xlink:href="#_名称未設定グラデーション_35"/>
    <radialGradient id="_名称未設定グラデーション_35-3" data-name="名称未設定グラデーション 35" cy="4.84" fy="4.84" r="3.47" gradientTransform="translate(58.78 79.64) rotate(-90)" xlink:href="#_名称未設定グラデーション_35"/>
    <radialGradient id="_名称未設定グラデーション_35-4" data-name="名称未設定グラデーション 35" cx="66.76" cy="4.84" fx="66.76" fy="4.84" r="3.47" gradientTransform="translate(57.43 77.4) rotate(-90)" xlink:href="#_名称未設定グラデーション_35"/>
    <radialGradient id="_名称未設定グラデーション_35-5" data-name="名称未設定グラデーション 35" cx="66.76" cy="4.84" fx="66.76" fy="4.84" r="3.47" gradientTransform="translate(-4.4 3.19)" xlink:href="#_名称未設定グラデーション_35"/>
    <radialGradient id="_名称未設定グラデーション_35-6" data-name="名称未設定グラデーション 35" cx="66.76" cy="4.84" fx="66.76" fy="4.84" r="3.47" gradientTransform="translate(-2.92 1.04)" xlink:href="#_名称未設定グラデーション_35"/>
    <radialGradient id="_名称未設定グラデーション_35-7" data-name="名称未設定グラデーション 35" cx="66.76" cy="4.84" fx="66.76" fy="4.84" r="3.47" gradientTransform="translate(-.51 .03)" xlink:href="#_名称未設定グラデーション_35"/>
    <radialGradient id="_名称未設定グラデーション_35-8" data-name="名称未設定グラデーション 35" cx="66.76" cy="4.84" fx="66.76" fy="4.84" r="3.47" gradientTransform="translate(73.66 -61.44) rotate(90)" xlink:href="#_名称未設定グラデーション_35"/>
    <radialGradient id="_名称未設定グラデーション_35-9" data-name="名称未設定グラデーション 35" cx="66.76" cy="4.84" fx="66.76" fy="4.84" r="3.47" gradientTransform="translate(75.57 -59.67) rotate(90)" xlink:href="#_名称未設定グラデーション_35"/>
    <radialGradient id="_名称未設定グラデーション_35-10" data-name="名称未設定グラデーション 35" cx="66.76" cy="4.84" fx="66.76" fy="4.84" r="3.47" gradientTransform="translate(138.15 14.46) rotate(-180)" xlink:href="#_名称未設定グラデーション_35"/>
    <radialGradient id="_名称未設定グラデーション_35-11" data-name="名称未設定グラデーション 35" cx="66.76" cy="4.84" fx="66.76" fy="4.84" r="3.47" gradientTransform="translate(137.34 16.94) rotate(-180)" xlink:href="#_名称未設定グラデーション_35"/>
    <linearGradient id="_名称未設定グラデーション_530" data-name="名称未設定グラデーション 530" x1="258.43" y1="22.82" x2="258.35" y2="27.57" gradientTransform="translate(326.09 36.59) rotate(-180)" gradientUnits="userSpaceOnUse">
      <stop offset="0" stop-color="#fcedff"/>
      <stop offset=".36" stop-color="#f2e7ff"/>
      <stop offset=".37" stop-color="#f2e7ff" stop-opacity="1"/>
      <stop offset=".48" stop-color="#f6eeff" stop-opacity=".82"/>
      <stop offset=".59" stop-color="#f9f4ff" stop-opacity=".67"/>
      <stop offset=".69" stop-color="#fbf9ff" stop-opacity=".55"/>
      <stop offset=".8" stop-color="#fdfcff" stop-opacity=".47"/>
      <stop offset=".9" stop-color="#fefeff" stop-opacity=".42"/>
      <stop offset="1" stop-color="#fff" stop-opacity=".4"/>
    </linearGradient>
    <linearGradient id="_名称未設定グラデーション_530-2" data-name="名称未設定グラデーション 530" x1="259.01" y1="-32.54" x2="258.93" y2="-27.79" gradientTransform="translate(96.8 270.78) rotate(-90)" xlink:href="#_名称未設定グラデーション_530"/>
    <linearGradient id="_名称未設定グラデーション_530-3" data-name="名称未設定グラデーション 530" x1="229.56" y1="-79.42" x2="229.48" y2="-74.68" gradientTransform="translate(142.49 240.76) rotate(-90)" xlink:href="#_名称未設定グラデーション_530"/>
    <linearGradient id="_名称未設定グラデーション_530-4" data-name="名称未設定グラデーション 530" x1="179.44" y1="-102.94" x2="179.36" y2="-98.19" gradientTransform="translate(165.32 189.51) rotate(-90)" xlink:href="#_名称未設定グラデーション_530"/>
    <linearGradient id="_名称未設定グラデーション_530-5" data-name="名称未設定グラデーション 530" x1="124.56" y1="-95.62" x2="124.48" y2="-90.88" gradientTransform="translate(-60 102.29)" xlink:href="#_名称未設定グラデーション_530"/>
    <linearGradient id="_名称未設定グラデーション_530-6" data-name="名称未設定グラデーション 530" x1="82.35" y1="-59.8" x2="82.27" y2="-55.06" gradientTransform="translate(-17.05 65.38)" xlink:href="#_名称未設定グラデーション_530"/>
    <linearGradient id="_名称未設定グラデーション_530-7" data-name="名称未設定グラデーション 530" x1="66.2" y1="-6.85" x2="66.12" y2="-2.1" gradientTransform="translate(.31 11.9)" xlink:href="#_名称未設定グラデーション_530"/>
    <linearGradient id="_名称未設定グラデーション_530-8" data-name="名称未設定グラデーション 530" x1="81.25" y1="46.43" x2="81.17" y2="51.18" gradientTransform="translate(116.33 -73.83) rotate(90)" xlink:href="#_名称未設定グラデーション_530"/>
    <linearGradient id="_名称未設定グラデーション_530-9" data-name="名称未設定グラデーション 530" x1="122.71" y1="83.12" x2="122.63" y2="87.86" gradientTransform="translate(154 -114.41) rotate(90)" xlink:href="#_名称未設定グラデーション_530"/>
    <linearGradient id="_名称未設定グラデーション_530-10" data-name="名称未設定グラデーション 530" x1="177.43" y1="91.56" x2="177.35" y2="96.31" gradientTransform="translate(246.5 103.23) rotate(-180)" xlink:href="#_名称未設定グラデーション_530"/>
    <linearGradient id="_名称未設定グラデーション_530-11" data-name="名称未設定グラデーション 530" x1="228.02" y1="69.08" x2="227.94" y2="73.83" gradientTransform="translate(296.7 82.01) rotate(-180)" xlink:href="#_名称未設定グラデーション_530"/>
  </defs>
  <g>
    <g>
      <path class="cls-24" d="M8.87,16.78c1.01-.07,2.41-.21,4.19-.41,1.79-.2,3.81-.45,6.07-.74,2.26-.29,4.6-.59,7.02-.9l.11.58c-1.73.5-3.82,1.09-6.26,1.75-2.45.66-5.34,1.39-8.68,2.18-.1.24-.23.43-.4.56-.17.13-.34.22-.5.27l-1.55-3.28Z"/>
      <path class="cls-24" d="M4.91,31.11c6.11-1.18,8.63-1.17,10.49-1.66,1.86-.49,4.3-.85,6.68-1.47,2.38-.62,4.39-1.19,7.02-2.4s4.95-3.13,7.52-5.25l.17.7c-2.47,2.39-5.73,4.23-9.44,6.13s-15.29,6.17-19.45,7.95l-2.98-4Z"/>
      <path class="cls-26" d="M18.74,29.71l3.35,2.12c-.12.17-.28.28-.47.32-.19.05-.48.02-.86-.07-.77.6-1.73,1.22-2.88,1.85-1.15.64-4.9,2.17-6.22,2.72-.44.19-3.47.47-5.14.44-3.31-.04-5-1.06-6.51-3.7,0,0,1.71,2.27,2.71,2.55.82.23,2.17,1.03,5.84.49,2.59-.38,3.91-1.37,4.68-1.91,1.13-.79,2.17-1.61,3.13-2.47.96-.85,1.75-1.64,2.38-2.36Z"/>
      <path class="cls-24" d="M12.29,7.49l3.67.36c-.02.22-.13.4-.31.56-.18.16-.47.26-.88.31v8.46l-2.48.4V7.49Z"/>
      <path class="cls-24" d="M14.52,19.91c1.49.1,2.71.31,3.65.65.95.34,1.69.73,2.21,1.17.53.44.88.89,1.06,1.35.18.46.2.86.07,1.22-.13.36-.36.61-.68.74-.32.13-.73.1-1.21-.09-.31-.55-.77-1.12-1.39-1.71-.61-.59-1.27-1.15-1.98-1.67-.71-.53-1.39-.96-2.03-1.3l.29-.36Z"/>
      <path class="cls-24" d="M17.61,26.28c.89.06,1.61.19,2.18.39.57.2,1.01.43,1.32.7.31.27.53.53.63.81.11.27.12.52.04.73-.08.21-.21.36-.41.44-.19.08-.43.06-.72-.05-.19-.33-.46-.67-.83-1.02-.37-.35-.76-.68-1.18-1-.42-.31-.83-.57-1.21-.77l.17-.22Z"/>
      <path class="cls-24" d="M17.66,4.29l3.96.36c-.02.26-.13.48-.32.65-.19.17-.52.29-.97.36v10.66l-2.66.36V4.29Z"/>
      <path class="cls-24" d="M22.88,16.49l3.74,1.66c-.1.17-.23.3-.4.4s-.47.12-.9.07c-.46.38-1.05.8-1.78,1.26-.73.46-1.5.91-2.3,1.35-.8.44-1.57.82-2.29,1.13l-.43-.4c.55-.53,1.1-1.12,1.66-1.78.55-.66,1.07-1.32,1.55-1.98.48-.66.86-1.23,1.15-1.71Z"/>
      <path class="cls-24" d="M18.84,10.05h3.1l1.62-2.23c.67.58,1.24,1.07,1.69,1.49.46.42.86.83,1.22,1.24-.1.38-.41.58-.94.58h-6.7v-1.08Z"/>
      <path class="cls-24" d="M27.12,18.25l3.56,1.55c-.07.17-.2.3-.4.4-.19.1-.5.12-.94.07-.82.7-1.88,1.45-3.2,2.27-1.32.82-2.73,1.6-4.23,2.34-1.5.74-2.96,1.38-4.37,1.91l-.4-.47c1.2-.72,2.44-1.55,3.71-2.5,1.27-.95,2.46-1.91,3.56-2.88,1.1-.97,2-1.87,2.7-2.68Z"/>
      <path class="cls-24" d="M23.92,27.95l2.88-.83v11.02c0,.1-.22.24-.65.43-.43.19-1.01.29-1.73.29h-.5v-10.91Z"/>
      <path class="cls-24" d="M27.41,4.29l3.74.4c-.02.22-.12.4-.29.56-.17.16-.43.26-.79.31v9.47c0,.29.08.48.23.58.16.1.55.14,1.17.14h3.35c.74,0,1.39,0,1.93-.02s.93-.03,1.17-.05c.34-.02.59-.14.76-.36.14-.24.32-.7.52-1.37.2-.67.39-1.4.56-2.2h.47l.07,3.64c.43.14.73.3.88.47s.23.38.23.65c0,.41-.17.74-.52.99-.35.25-1.01.44-2,.56-.98.12-2.39.18-4.21.18h-3.74c-.98,0-1.73-.08-2.25-.23-.52-.16-.86-.42-1.03-.79-.17-.37-.25-.89-.25-1.57V4.29Z"/>
      <path class="cls-24" d="M36.81,6.56l3.2,2.45c-.31.34-.92.36-1.84.07-.79.36-1.73.73-2.81,1.12-1.08.38-2.23.74-3.44,1.06-1.21.32-2.41.58-3.58.77l-.22-.54c1.06-.41,2.14-.89,3.24-1.46,1.1-.56,2.14-1.16,3.1-1.78.96-.62,1.74-1.19,2.34-1.69Z"/>
      <path class="cls-24" d="M29.43,30.14c1.85.19,3.4.52,4.64.97,1.25.46,2.23.96,2.95,1.51.72.55,1.22,1.11,1.49,1.67.28.56.37,1.06.27,1.49-.1.43-.33.73-.7.9-.37.17-.83.16-1.39-.04-.48-.72-1.15-1.46-2.02-2.23-.86-.77-1.79-1.5-2.77-2.2-.98-.7-1.92-1.26-2.81-1.69l.32-.4Z"/>
      <path class="cls-24" d="M34.03,19.63c1.85.31,3.38.72,4.59,1.22s2.16,1.06,2.84,1.67c.68.61,1.14,1.2,1.37,1.76.23.56.28,1.06.16,1.48-.12.42-.37.71-.74.86-.37.16-.83.1-1.39-.16-.43-.77-1.05-1.55-1.85-2.36-.8-.8-1.67-1.57-2.61-2.29-.94-.72-1.82-1.32-2.66-1.8l.29-.4Z"/>
    </g>
    <g>
      <path class="cls-27" d="M46.17,6.63v-1.33l3.13,1.33h-.43v45.72c0,.07-.1.19-.29.34-.19.16-.45.3-.77.43-.32.13-.71.2-1.17.2h-.47V6.63Z"/>
      <rect class="cls-24" x="47.46" y="6.63" width="7.16" height="1.01"/>
      <path class="cls-24" d="M53.48,6.63h-.4l1.66-1.62,3.06,2.99c-.26.26-.8.4-1.62.4-.38.7-.85,1.54-1.4,2.52-.55.98-1.13,1.96-1.73,2.92-.6.96-1.16,1.79-1.69,2.48,1.08.84,1.94,1.73,2.57,2.66.64.94,1.1,1.87,1.39,2.79s.43,1.82.43,2.68c0,1.61-.34,2.83-1.01,3.67-.67.84-1.81,1.3-3.42,1.37,0-.41-.04-.82-.11-1.24-.07-.42-.18-.71-.32-.88-.12-.14-.32-.27-.59-.38-.28-.11-.58-.19-.92-.23v-.54h1.94c.36,0,.65-.07.86-.22.55-.26.83-1,.83-2.2s-.18-2.39-.54-3.65-1.03-2.5-2.02-3.73c.31-.84.67-1.86,1.06-3.06s.77-2.41,1.13-3.62c.36-1.21.64-2.25.83-3.11Z"/>
      <path class="cls-24" d="M61.43,19.84h2.92v.58c-1.01,2.06-2.36,3.92-4.07,5.56-1.7,1.64-3.71,3.05-6.01,4.23l-.36-.54c1.73-1.27,3.23-2.76,4.52-4.46,1.28-1.7,2.29-3.49,3.01-5.36Z"/>
      <path class="cls-24" d="M64.13,23.87h2.63v.58c-1.2,2.23-2.79,4.25-4.77,6.05-1.98,1.8-4.24,3.34-6.79,4.61l-.4-.58c2.06-1.37,3.9-2.98,5.51-4.84,1.61-1.86,2.88-3.8,3.82-5.81Z"/>
      <path class="cls-24" d="M55.42,19.84h17.86l1.76-2.27c.43.34.82.65,1.15.94.34.29.69.59,1.06.9.37.31.7.61.99.9-.07.38-.38.58-.94.58h-21.6l-.29-1.04Z"/>
      <path class="cls-24" d="M69.21,23.87h2.81v.58c-1.1,2.9-2.72,5.45-4.86,7.63-2.14,2.18-4.82,4.01-8.06,5.47l-.4-.54c2.62-1.58,4.8-3.5,6.55-5.74,1.75-2.24,3.07-4.71,3.96-7.4Z"/>
      <polygon class="cls-24" points="60.42 23.87 74.97 23.87 74.97 24.92 59.78 24.92 60.42 23.87"/>
      <path class="cls-24" d="M73.96,23.87h-.4l1.51-1.51,2.88,2.38c-.24.29-.72.47-1.44.54-.26,3.1-.68,5.56-1.26,7.4s-1.28,3.08-2.12,3.73c-.48.38-1.04.67-1.67.85-.64.18-1.3.27-2,.27,0-.41-.04-.77-.11-1.1-.07-.32-.22-.58-.43-.77-.22-.22-.56-.4-1.04-.56-.48-.16-1.01-.28-1.58-.38l.04-.58c.38.02.83.06,1.35.11.52.05,1.01.08,1.48.11.47.02.81.04,1.03.04.53,0,.96-.11,1.3-.32.53-.41,1.01-1.49,1.46-3.24.44-1.75.79-4.07,1.03-6.95Z"/>
    </g>
    <g>
      <path class="cls-24" d="M89.87,13.54l4.1,1.66c-.1.19-.26.35-.5.47-.24.12-.55.17-.94.14-1.54,2.76-3.32,5.2-5.35,7.33-2.03,2.12-4.13,3.83-6.32,5.13l-.43-.4c1.15-1.06,2.3-2.33,3.46-3.82,1.15-1.49,2.24-3.13,3.28-4.93,1.03-1.8,1.93-3.66,2.7-5.58Z"/>
      <path class="cls-24" d="M80.8,8.61h9.86v-4.28l4.14.36c-.02.24-.13.45-.32.63-.19.18-.52.29-.97.34v2.95h7.49v-4.28l4.14.36c-.02.24-.13.45-.31.63-.18.18-.5.29-.95.34v2.95h4.86l1.84-2.38c.46.36.86.68,1.21.97.35.29.71.6,1.1.94.38.34.73.65,1.04.94-.07.36-.4.54-.97.54h-9.07v2.84c0,.1-.11.2-.32.32-.22.12-.5.22-.86.31-.36.08-.77.14-1.22.16h-.47v-3.64h-7.49v3.02c0,.1-.12.2-.36.32-.24.12-.54.22-.9.29-.36.07-.73.11-1.12.11h-.47v-3.74h-9.65l-.22-1.01Z"/>
      <path class="cls-24" d="M88,20.49l.61-.83,3.35,1.26c-.17.36-.54.58-1.12.65v15.08c0,.07-.12.17-.36.31-.24.13-.54.25-.9.34-.36.1-.72.14-1.08.14h-.5v-16.96Z"/>
      <path class="cls-25" d="M97.97,13.76l4.07.43c-.02.22-.13.41-.31.58s-.49.28-.92.32v17.78c0,.38.11.65.34.81s.73.23,1.49.23h3.92c.86,0,5.35-.56,5.98-.57.62-.01,4.16-1.46,4.95-2.11s2.4-7.64,2.64-8.87c0,0,1.6,10.55,1.6,10.84,0,.46-.21.82-.63,1.08-.42.26-2.46,2.04-6.93,3.17-3.95.99-11.48,0-11.48,0-1.1,0-2.28-.35-2.89-.53-.61-.18-1.21-1.06-1.46-1.51-.25-.44-.38-1.06-.38-1.85V13.76Z"/>
      <path class="cls-24" d="M109.02,15.88l3.53,2.66c-.12.17-.29.28-.52.32-.23.05-.55-.01-.95-.18-1.73,1.49-3.55,2.81-5.47,3.98-1.92,1.17-3.76,2.08-5.51,2.75l-.29-.54c.96-.65,1.97-1.44,3.04-2.38,1.07-.94,2.14-1.97,3.2-3.11s2.06-2.31,2.97-3.51Z"/>
    </g>
  </g>
  <g>
    <g>
      <ellipse class="cls-5" cx="68.55" cy="13.75" rx=".84" ry="4.84" transform="translate(0 27.54) rotate(-22.72)"/>
      <ellipse class="cls-21" cx="65.95" cy="14.04" rx="4.84" ry=".84" transform="translate(40.66 76.55) rotate(-79.99)"/>
      <ellipse class="cls-4" cx="63.61" cy="12.88" rx="4.84" ry=".84" transform="translate(10.98 50.86) rotate(-47.26)"/>
      <ellipse class="cls-14" cx="62.27" cy="10.64" rx="4.84" ry=".84" transform="translate(-.68 15.97) rotate(-14.54)"/>
      <ellipse class="cls-3" cx="62.35" cy="8.03" rx=".84" ry="4.84" transform="translate(35.26 64.76) rotate(-71.81)"/>
      <ellipse class="cls-9" cx="63.84" cy="5.87" rx=".84" ry="4.84" transform="translate(10.58 41.56) rotate(-39.08)"/>
      <ellipse class="cls-1" cx="66.25" cy="4.87" rx=".84" ry="4.84" transform="translate(-.13 7.36) rotate(-6.35)"/>
      <ellipse class="cls-11" cx="68.82" cy="5.32" rx="4.84" ry=".84" transform="translate(33.48 64.61) rotate(-63.63)"/>
      <ellipse class="cls-12" cx="70.74" cy="7.09" rx="4.84" ry=".84" transform="translate(6.4 37.33) rotate(-30.9)"/>
      <ellipse class="cls-16" cx="71.39" cy="9.62" rx=".84" ry="4.84" transform="translate(59.5 80.67) rotate(-88.17)"/>
      <ellipse class="cls-10" cx="70.58" cy="12.1" rx=".84" ry="4.84" transform="translate(20.58 63.37) rotate(-55.45)"/>
    </g>
    <g class="cls-23">
      <ellipse class="cls-6" cx="67.69" cy="11.65" rx=".4" ry="2.33" transform="translate(.91 27.73) rotate(-23.3)"/>
      <ellipse class="cls-17" cx="66.38" cy="11.81" rx="2.33" ry=".4" transform="translate(43.86 75.36) rotate(-80.58)"/>
      <ellipse class="cls-8" cx="65.19" cy="11.24" rx="2.33" ry=".4" transform="translate(13.11 52.03) rotate(-47.85)"/>
      <ellipse class="cls-2" cx="64.5" cy="10.11" rx="2.33" ry=".4" transform="translate(-.4 17.18) rotate(-15.12)"/>
      <ellipse class="cls-19" cx="64.53" cy="8.79" rx=".4" ry="2.33" transform="translate(36.63 67.63) rotate(-72.39)"/>
      <ellipse class="cls-18" cx="65.26" cy="7.69" rx=".4" ry="2.33" transform="translate(10.12 43.43) rotate(-39.67)"/>
      <ellipse class="cls-22" cx="66.48" cy="7.17" rx=".4" ry="2.33" transform="translate(-.38 8.08) rotate(-6.94)"/>
      <ellipse class="cls-15" cx="67.78" cy="7.38" rx="2.33" ry=".4" transform="translate(31.65 65.21) rotate(-64.21)"/>
      <ellipse class="cls-13" cx="68.77" cy="8.27" rx="2.33" ry=".4" transform="translate(5.8 37.13) rotate(-31.49)"/>
      <ellipse class="cls-7" cx="69.11" cy="9.55" rx=".4" ry="2.33" transform="translate(58.07 78.44) rotate(-88.76)"/>
      <ellipse class="cls-20" cx="68.71" cy="10.81" rx=".4" ry="2.33" transform="translate(21.35 61.75) rotate(-56.03)"/>
    </g>
  </g>
</svg>