<?xml version="1.0" encoding="UTF-8"?>
<svg id="layer2" xmlns="http://www.w3.org/2000/svg" xmlns:xlink="http://www.w3.org/1999/xlink" viewBox="0 0 104.5 146.9">
  <defs>
    <style>
      .cls-1 {
        fill: url(#_名称未設定グラデーション_188-3);
      }

      .cls-2 {
        fill: url(#_名称未設定グラデーション_188-5);
      }

      .cls-3 {
        fill: url(#_名称未設定グラデーション_188-6);
      }

      .cls-4 {
        fill: url(#_名称未設定グラデーション_188);
      }

      .cls-5 {
        fill: url(#_名称未設定グラデーション_188-2);
      }

      .cls-6 {
        fill: url(#_名称未設定グラデーション_188-7);
      }

      .cls-7 {
        fill: url(#_名称未設定グラデーション_214);
      }

      .cls-8 {
        fill: none;
        stroke: url(#_名称未設定グラデーション_232);
        stroke-linecap: round;
        stroke-miterlimit: 10;
        stroke-width: 1.18px;
      }

      .cls-9 {
        fill: url(#_名称未設定グラデーション_188-8);
      }

      .cls-10 {
        fill: url(#_名称未設定グラデーション_188-4);
      }

      .cls-11 {
        fill: url(#_名称未設定グラデーション_217);
      }
    </style>
    <linearGradient id="_名称未設定グラデーション_232" data-name="名称未設定グラデーション 232" x1="46.16" y1="58.67" x2="46.16" y2="146.9" gradientUnits="userSpaceOnUse">
      <stop offset="0" stop-color="#28b800"/>
      <stop offset=".2" stop-color="#38c014" stop-opacity=".93"/>
      <stop offset=".55" stop-color="#65d84b" stop-opacity=".73"/>
      <stop offset="1" stop-color="#adfea4" stop-opacity=".4"/>
      <stop offset="1" stop-color="#aeffa5" stop-opacity=".4"/>
    </linearGradient>
    <radialGradient id="_名称未設定グラデーション_217" data-name="名称未設定グラデーション 217" cx="52.25" cy="54.63" fx="52.25" fy="54.63" r="53.45" gradientUnits="userSpaceOnUse">
      <stop offset="0" stop-color="#ff6b9d"/>
      <stop offset=".12" stop-color="#fb6f9f" stop-opacity=".96"/>
      <stop offset=".33" stop-color="#f37da5" stop-opacity=".87"/>
      <stop offset=".6" stop-color="#e692af" stop-opacity=".71"/>
      <stop offset=".62" stop-color="#e694b0" stop-opacity=".7"/>
      <stop offset=".72" stop-color="#e398b1" stop-opacity=".48"/>
      <stop offset=".85" stop-color="#df9db4" stop-opacity=".22"/>
      <stop offset=".95" stop-color="#dda0b5" stop-opacity=".06"/>
      <stop offset="1" stop-color="#dda2b6" stop-opacity="0"/>
    </radialGradient>
    <linearGradient id="_名称未設定グラデーション_188" data-name="名称未設定グラデーション 188" x1="52.25" y1="65.58" x2="52.25" y2="-4.98" gradientTransform="translate(109.6 103.88) rotate(174.37)" gradientUnits="userSpaceOnUse">
      <stop offset="0" stop-color="#ff6b9d"/>
      <stop offset=".12" stop-color="#fb6f9f" stop-opacity=".96"/>
      <stop offset=".33" stop-color="#f37da5" stop-opacity=".87"/>
      <stop offset=".6" stop-color="#e692af" stop-opacity=".71"/>
      <stop offset=".62" stop-color="#e694b0" stop-opacity=".7"/>
      <stop offset=".72" stop-color="#e398b1" stop-opacity=".61"/>
      <stop offset=".9" stop-color="#de9fb4" stop-opacity=".46"/>
      <stop offset="1" stop-color="#dda2b6" stop-opacity=".4"/>
    </linearGradient>
    <linearGradient id="_名称未設定グラデーション_188-2" data-name="名称未設定グラデーション 188" x1="52.25" y1="65.58" x2="52.25" y2="-4.98" gradientTransform="translate(57.98 130.01) rotate(-140.63)" xlink:href="#_名称未設定グラデーション_188"/>
    <linearGradient id="_名称未設定グラデーション_188-3" data-name="名称未設定グラデーション 188" y1="65.58" y2="-4.98" gradientTransform="translate(3 111.99) rotate(-95.63)" xlink:href="#_名称未設定グラデーション_188"/>
    <linearGradient id="_名称未設定グラデーション_188-4" data-name="名称未設定グラデーション 188" x1="52.25" y1="65.58" x2="52.25" y2="-4.98" gradientTransform="translate(-23.13 60.37) rotate(-50.63)" xlink:href="#_名称未設定グラデーション_188"/>
    <linearGradient id="_名称未設定グラデーション_188-5" data-name="名称未設定グラデーション 188" y1="65.58" y2="-4.98" gradientTransform="translate(-5.11 5.39) rotate(-5.63)" xlink:href="#_名称未設定グラデーション_188"/>
    <linearGradient id="_名称未設定グラデーション_188-6" data-name="名称未設定グラデーション 188" y2="-4.98" gradientTransform="translate(46.51 -20.74) rotate(39.37)" xlink:href="#_名称未設定グラデーション_188"/>
    <linearGradient id="_名称未設定グラデーション_188-7" data-name="名称未設定グラデーション 188" x1="52.25" y1="65.58" x2="52.25" y2="-4.98" gradientTransform="translate(101.49 -2.72) rotate(84.37)" xlink:href="#_名称未設定グラデーション_188"/>
    <linearGradient id="_名称未設定グラデーション_188-8" data-name="名称未設定グラデーション 188" x1="52.25" x2="52.25" y2="-4.98" gradientTransform="translate(127.63 48.9) rotate(129.37)" xlink:href="#_名称未設定グラデーション_188"/>
    <radialGradient id="_名称未設定グラデーション_214" data-name="名称未設定グラデーション 214" cx="52.25" cy="54.63" fx="52.25" fy="54.63" r="2.84" gradientUnits="userSpaceOnUse">
      <stop offset="0" stop-color="#ffd005" stop-opacity=".69"/>
      <stop offset="1" stop-color="#ffe087" stop-opacity=".4"/>
    </radialGradient>
  </defs>
  <g id="layer3">
    <path class="cls-8" d="M51.71,59.26c-4.65,24.75,5.35,44.92,3.8,59.82-2.59,24.92-21.56,28.13-32.77,27.06M38.24,129.77c-1.49,7.9-7.01,10.14-4.56,15.8M28.06,136.42c.18,2.79,2.4,5.52,5.11,5.33M35.65,136.48c2.22.65,4.19-1.34,4.19-2.57M55.24,121.21c9.42-.5,11.6-7.71,10.54-9.83M58.35,115.74c0,1.21-.28,3.52.93,4.75M64.69,116.56c1.44,1.82,4.28-.26,4.9-1.1M57.13,121.01c.27,1.55,4.68,5.41,6.98,4.85"/>
  </g>
  <ellipse class="cls-11" cx="52.25" cy="54.63" rx="52.25" ry="54.63"/>
  <g>
    <path class="cls-4" d="M43.43,79.84c1.08-13.67,8.55-25.8,8.55-25.8,0,0,9.38,10.53,13.42,23.63,3.7,12,1.73,21.95-2.95,24.88-.44.28-1.58-1.07-2.98-.72-.91.23-1.68,1.77-2.38,1.84-.56.06-1.63-1.29-2.4-1.38-1.36-.16-1.7,1.6-2.3,1.25-4.73-2.77-9.81-12.93-8.96-23.71Z"/>
    <path class="cls-5" d="M28.18,66.22c10.43-8.9,24.29-12.2,24.29-12.2,0,0-.81,14.08-7.22,26.2-5.87,11.11-14.3,16.74-19.68,15.5-.51-.12-.36-1.88-1.59-2.61-.81-.48-2.44.06-2.98-.39-.44-.36-.24-2.07-.72-2.67-.85-1.07-2.33-.07-2.51-.74-1.39-5.3,2.2-16.08,10.43-23.1Z"/>
    <path class="cls-1" d="M27.04,45.81c13.67,1.08,25.8,8.55,25.8,8.55,0,0-10.53,9.38-23.63,13.42-12,3.7-21.95,1.73-24.88-2.95-.28-.44,1.07-1.58.72-2.98-.23-.91-1.77-1.68-1.84-2.38-.06-.56,1.29-1.63,1.38-2.4.16-1.36-1.6-1.7-1.25-2.3,2.77-4.73,12.93-9.81,23.71-8.96Z"/>
    <path class="cls-10" d="M40.66,30.57c8.9,10.43,12.2,24.29,12.2,24.29,0,0-14.08-.81-26.2-7.22-11.11-5.87-16.74-14.3-15.5-19.68.12-.51,1.88-.36,2.61-1.59.48-.81-.06-2.44.39-2.98.36-.44,2.07-.24,2.67-.72,1.07-.85.07-2.33.74-2.51,5.3-1.39,16.08,2.2,23.1,10.43Z"/>
    <path class="cls-2" d="M61.07,29.42c-1.08,13.67-8.55,25.8-8.55,25.8,0,0-9.38-10.53-13.42-23.63-3.7-12-1.73-21.95,2.95-24.88.44-.28,1.58,1.07,2.98.72.91-.23,1.68-1.77,2.38-1.84.56-.06,1.63,1.29,2.4,1.38,1.36.16,1.7-1.6,2.3-1.25,4.73,2.77,9.81,12.93,8.96,23.71Z"/>
    <path class="cls-3" d="M76.31,43.05c-10.43,8.9-24.29,12.2-24.29,12.2,0,0,.81-14.08,7.22-26.2,5.87-11.11,14.3-16.74,19.68-15.5.51.12.36,1.88,1.59,2.61.81.48,2.44-.06,2.98.39.44.36.24,2.07.72,2.67.85,1.07,2.33.07,2.51.74,1.39,5.3-2.2,16.08-10.43,23.1Z"/>
    <path class="cls-6" d="M77.46,63.46c-13.67-1.08-25.8-8.55-25.8-8.55,0,0,10.53-9.38,23.63-13.42,12-3.7,21.95-1.73,24.88,2.95.28.44-1.07,1.58-.72,2.98.23.91,1.77,1.68,1.84,2.38.06.56-1.29,1.63-1.38,2.4-.16,1.36,1.6,1.7,1.25,2.3-2.77,4.73-12.93,9.81-23.71,8.96Z"/>
    <path class="cls-9" d="M63.84,78.7c-8.9-10.43-12.2-24.29-12.2-24.29,0,0,14.08.81,26.2,7.22,11.11,5.87,16.74,14.3,15.5,19.68-.12.51-1.88.36-2.61,1.59-.48.81.06,2.44-.39,2.98-.36.44-2.07.24-2.67.72-1.07.85-.07,2.33-.74,2.51-5.3,1.39-16.08-2.2-23.1-10.43Z"/>
  </g>
  <circle class="cls-7" cx="52.25" cy="54.63" r="2.84"/>
</svg>