<?xml version="1.0" encoding="UTF-8"?>
<svg id="layer2" xmlns="http://www.w3.org/2000/svg" xmlns:xlink="http://www.w3.org/1999/xlink" viewBox="0 0 104.5 146.9">
  <defs>
    <style>
      .cls-1 {
        fill: url(#_名称未設定グラデーション_188-3);
      }

      .cls-2 {
        fill: url(#_名称未設定グラデーション_188-5);
      }

      .cls-3 {
        fill: url(#_名称未設定グラデーション_188-6);
      }

      .cls-4 {
        fill: url(#_名称未設定グラデーション_188);
      }

      .cls-5 {
        fill: url(#_名称未設定グラデーション_188-2);
      }

      .cls-6 {
        fill: url(#_名称未設定グラデーション_188-7);
      }

      .cls-7 {
        fill: url(#_名称未設定グラデーション_214);
      }

      .cls-8 {
        fill: url(#_名称未設定グラデーション_188-9);
      }

      .cls-9 {
        fill: none;
        stroke: url(#_名称未設定グラデーション_232);
        stroke-linecap: round;
        stroke-miterlimit: 10;
        stroke-width: 1.18px;
      }

      .cls-10 {
        fill: url(#_名称未設定グラデーション_188-8);
      }

      .cls-11 {
        fill: url(#_名称未設定グラデーション_188-4);
      }

      .cls-12 {
        fill: url(#_名称未設定グラデーション_217);
      }
    </style>
    <linearGradient id="_名称未設定グラデーション_232" data-name="名称未設定グラデーション 232" x1="46.16" y1="58.67" x2="46.16" y2="146.9" gradientUnits="userSpaceOnUse">
      <stop offset="0" stop-color="#28b800"/>
      <stop offset=".2" stop-color="#38c014" stop-opacity=".93"/>
      <stop offset=".55" stop-color="#65d84b" stop-opacity=".73"/>
      <stop offset="1" stop-color="#adfea4" stop-opacity=".4"/>
      <stop offset="1" stop-color="#aeffa5" stop-opacity=".4"/>
    </linearGradient>
    <radialGradient id="_名称未設定グラデーション_217" data-name="名称未設定グラデーション 217" cx="52.25" cy="54.63" fx="52.25" fy="54.63" r="53.45" gradientUnits="userSpaceOnUse">
      <stop offset="0" stop-color="#ff6b9d"/>
      <stop offset=".12" stop-color="#fb6f9f" stop-opacity=".96"/>
      <stop offset=".33" stop-color="#f37da5" stop-opacity=".87"/>
      <stop offset=".6" stop-color="#e692af" stop-opacity=".71"/>
      <stop offset=".62" stop-color="#e694b0" stop-opacity=".7"/>
      <stop offset=".72" stop-color="#e398b1" stop-opacity=".48"/>
      <stop offset=".85" stop-color="#df9db4" stop-opacity=".22"/>
      <stop offset=".95" stop-color="#dda0b5" stop-opacity=".06"/>
      <stop offset="1" stop-color="#dda2b6" stop-opacity="0"/>
    </radialGradient>
    <linearGradient id="_名称未設定グラデーション_188" data-name="名称未設定グラデーション 188" x1="52.25" y1="65.58" x2="52.25" y2="-4.98" gradientTransform="translate(109.6 103.88) rotate(174.37)" gradientUnits="userSpaceOnUse">
      <stop offset="0" stop-color="#ff6b9d"/>
      <stop offset=".12" stop-color="#fb6f9f" stop-opacity=".96"/>
      <stop offset=".33" stop-color="#f37da5" stop-opacity=".87"/>
      <stop offset=".6" stop-color="#e692af" stop-opacity=".71"/>
      <stop offset=".62" stop-color="#e694b0" stop-opacity=".7"/>
      <stop offset=".72" stop-color="#e398b1" stop-opacity=".61"/>
      <stop offset=".9" stop-color="#de9fb4" stop-opacity=".46"/>
      <stop offset="1" stop-color="#dda2b6" stop-opacity=".4"/>
    </linearGradient>
    <linearGradient id="_名称未設定グラデーション_188-2" data-name="名称未設定グラデーション 188" y1="65.58" y2="-4.98" gradientTransform="translate(65.34 129.09) rotate(-146.25)" xlink:href="#_名称未設定グラデーション_188"/>
    <linearGradient id="_名称未設定グラデーション_188-3" data-name="名称未設定グラデーション 188" x1="52.25" y1="65.58" x2="52.25" y2="-4.98" gradientTransform="translate(15.14 120.49) rotate(-106.88)" xlink:href="#_名称未設定グラデーション_188"/>
    <linearGradient id="_名称未設定グラデーション_188-4" data-name="名称未設定グラデーション 188" y2="-4.98" gradientTransform="translate(-18.22 82) rotate(-67.5)" xlink:href="#_名称未設定グラデーション_188"/>
    <linearGradient id="_名称未設定グラデーション_188-5" data-name="名称未設定グラデーション 188" y1="65.58" y2="-4.98" gradientTransform="translate(-19.59 31.09) rotate(-28.13)" xlink:href="#_名称未設定グラデーション_188"/>
    <linearGradient id="_名称未設定グラデーション_188-6" data-name="名称未設定グラデーション 188" x1="52.25" y1="65.58" x2="52.25" y2="-4.98" gradientTransform="translate(11.66 -9.14) rotate(11.25)" xlink:href="#_名称未設定グラデーション_188"/>
    <linearGradient id="_名称未設定グラデーション_188-7" data-name="名称未設定グラデーション 188" y2="-4.98" gradientTransform="translate(61.33 -20.41) rotate(50.62)" xlink:href="#_名称未設定グラデーション_188"/>
    <linearGradient id="_名称未設定グラデーション_188-8" data-name="名称未設定グラデーション 188" x1="52.25" y1="65.58" x2="52.25" y2="-4.98" gradientTransform="translate(106.88 2.38) rotate(90)" xlink:href="#_名称未設定グラデーション_188"/>
    <linearGradient id="_名称未設定グラデーション_188-9" data-name="名称未設定グラデーション 188" x1="52.25" x2="52.25" y2="-4.98" gradientTransform="translate(127.63 48.9) rotate(129.37)" xlink:href="#_名称未設定グラデーション_188"/>
    <radialGradient id="_名称未設定グラデーション_214" data-name="名称未設定グラデーション 214" cx="52.25" cy="54.63" fx="52.25" fy="54.63" r="2.84" gradientUnits="userSpaceOnUse">
      <stop offset="0" stop-color="#ffd005" stop-opacity=".69"/>
      <stop offset="1" stop-color="#ffe087" stop-opacity=".4"/>
    </radialGradient>
  </defs>
  <g id="layer3">
    <path class="cls-9" d="M51.71,59.26c-4.65,24.75,5.35,44.92,3.8,59.82-2.59,24.92-21.56,28.13-32.77,27.06M38.24,129.77c-1.49,7.9-7.01,10.14-4.56,15.8M28.06,136.42c.18,2.79,2.4,5.52,5.11,5.33M35.65,136.48c2.22.65,4.19-1.34,4.19-2.57M55.24,121.21c9.42-.5,11.6-7.71,10.54-9.83M58.35,115.74c0,1.21-.28,3.52.93,4.75M64.69,116.56c1.44,1.82,4.28-.26,4.9-1.1M57.13,121.01c.27,1.55,4.68,5.41,6.98,4.85"/>
  </g>
  <ellipse class="cls-12" cx="52.25" cy="54.63" rx="52.25" ry="54.63"/>
  <g>
    <path class="cls-4" d="M43.43,79.84c1.08-13.67,8.55-25.8,8.55-25.8,0,0,9.38,10.53,13.42,23.63,3.7,12,1.73,21.95-2.95,24.88-.44.28-1.58-1.07-2.98-.72-.91.23-1.68,1.77-2.38,1.84-.56.06-1.63-1.29-2.4-1.38-1.36-.16-1.7,1.6-2.3,1.25-4.73-2.77-9.81-12.93-8.96-23.71Z"/>
    <path class="cls-5" d="M29.43,68.52c9.51-9.88,22.98-14.52,22.98-14.52,0,0,.57,14.09-4.62,26.78-4.76,11.63-12.59,18.06-18.07,17.36-.52-.07-.54-1.83-1.84-2.45-.85-.4-2.42.3-3.01-.09-.47-.31-.44-2.03-.98-2.59-.95-.98-2.33.16-2.57-.49-1.9-5.14.62-16.22,8.11-24.01Z"/>
    <path class="cls-1" d="M25.8,50.9c13.62-1.61,26.97,3.35,26.97,3.35,0,0-8.49,11.25-20.56,17.77-11.05,5.97-21.19,5.97-24.98,1.96-.36-.38.74-1.76.13-3.06-.4-.85-2.06-1.3-2.27-1.98-.16-.54.95-1.85.88-2.62-.11-1.36-1.9-1.36-1.68-2.01,1.79-5.18,10.77-12.15,21.5-13.41Z"/>
    <path class="cls-11" d="M34.17,34.97c11.55,7.4,18.72,19.7,18.72,19.7,0,0-13.7,3.31-27.17.7-12.33-2.4-20.17-8.82-20.55-14.33-.04-.52,1.69-.89,2.04-2.29.23-.91-.77-2.31-.5-2.97.22-.52,1.91-.83,2.35-1.47.78-1.12-.61-2.25-.02-2.62,4.67-2.87,16.03-2.56,25.13,3.28Z"/>
    <path class="cls-2" d="M50.75,27.97c4.23,13.05,1.97,27.11,1.97,27.11,0,0-12.69-6.13-21.44-16.7-8.01-9.67-9.99-19.62-6.79-24.12.3-.42,1.87.38,3.03-.47.76-.56.87-2.28,1.5-2.61.5-.27,2,.57,2.75.35,1.31-.38.96-2.13,1.64-2.04,5.43.75,14.01,8.19,17.35,18.47Z"/>
    <path class="cls-3" d="M68.01,33.07c-5.01,12.77-15.67,22.21-15.67,22.21,0,0-5.92-12.8-5.98-26.51-.06-12.56,4.72-21.5,10.05-22.95.5-.14,1.2,1.48,2.64,1.55.94.05,2.12-1.2,2.81-1.07.55.11,1.19,1.71,1.9,2.01,1.25.54,2.09-1.04,2.56-.53,3.72,4.02,5.64,15.22,1.69,25.29Z"/>
    <path class="cls-6" d="M78.11,47.96c-11.97,6.7-26.2,7.22-26.2,7.22,0,0,3.54-13.65,12.19-24.29,7.93-9.75,17.29-13.63,22.33-11.37.47.21-.01,1.91,1.05,2.88.7.63,2.4.41,2.85.96.36.44-.16,2.07.19,2.76.63,1.21,2.28.53,2.32,1.21.32,5.47-5.3,15.34-14.74,20.62Z"/>
    <path class="cls-10" d="M76.47,65.89c-13.5-2.42-24.84-11.04-24.84-11.04,0,0,11.39-8.3,24.84-11.04,12.31-2.51,22.01.43,24.47,5.38.23.47-1.22,1.47-1.01,2.89.14.93,1.59,1.84,1.59,2.55,0,.57-1.44,1.5-1.61,2.25-.29,1.34,1.43,1.85,1.02,2.41-3.22,4.44-13.83,8.5-24.47,6.59Z"/>
    <path class="cls-8" d="M63.84,78.7c-8.9-10.43-12.2-24.29-12.2-24.29,0,0,14.08.81,26.2,7.22,11.11,5.87,16.74,14.3,15.5,19.68-.12.51-1.88.36-2.61,1.59-.48.81.06,2.44-.39,2.98-.36.44-2.07.24-2.67.72-1.07.85-.07,2.33-.74,2.51-5.3,1.39-16.08-2.2-23.1-10.43Z"/>
  </g>
  <circle class="cls-7" cx="52.25" cy="54.63" r="2.84"/>
</svg>