<?xml version="1.0" encoding="UTF-8"?>
<svg id="kosumosu" xmlns="http://www.w3.org/2000/svg" xmlns:xlink="http://www.w3.org/1999/xlink" viewBox="0 0 121.74 53.93">
  <defs>
    <style>
      .cls-1 {
        fill: url(#_名称未設定グラデーション_63);
      }

      .cls-2 {
        fill: #fff;
      }

      .cls-3 {
        fill: url(#_名称未設定グラデーション_36);
      }

      .cls-4 {
        fill: url(#_名称未設定グラデーション_23);
      }

      .cls-5 {
        fill: url(#_名称未設定グラデーション_54);
      }

      .cls-6 {
        fill: #f7f8f8;
      }
    </style>
    <linearGradient id="_名称未設定グラデーション_63" data-name="名称未設定グラデーション 63" x1="31.27" y1="4.82" x2="31.27" y2="36.74" gradientUnits="userSpaceOnUse">
      <stop offset="0" stop-color="#fff" stop-opacity="0"/>
      <stop offset="0" stop-color="#fff" stop-opacity=".08"/>
      <stop offset=".03" stop-color="#fff" stop-opacity=".35"/>
      <stop offset=".04" stop-color="#fff" stop-opacity=".58"/>
      <stop offset=".06" stop-color="#fff" stop-opacity=".76"/>
      <stop offset=".08" stop-color="#fff" stop-opacity=".89"/>
      <stop offset=".09" stop-color="#fff" stop-opacity=".97"/>
      <stop offset=".1" stop-color="#fff"/>
      <stop offset=".23" stop-color="#fff"/>
      <stop offset="1" stop-color="#fff"/>
    </linearGradient>
    <linearGradient id="_名称未設定グラデーション_36" data-name="名称未設定グラデーション 36" x1="22.78" y1="31.77" x2="92.21" y2="31.77" gradientUnits="userSpaceOnUse">
      <stop offset="0" stop-color="#fff" stop-opacity=".4"/>
      <stop offset=".46" stop-color="#fff" stop-opacity=".2"/>
      <stop offset=".49" stop-color="#fff" stop-opacity=".25"/>
      <stop offset=".67" stop-color="#fff" stop-opacity=".57"/>
      <stop offset=".83" stop-color="#fff" stop-opacity=".8"/>
      <stop offset=".94" stop-color="#fff" stop-opacity=".95"/>
      <stop offset="1" stop-color="#fff"/>
    </linearGradient>
    <linearGradient id="_名称未設定グラデーション_23" data-name="名称未設定グラデーション 23" x1="85.83" y1="5.35" x2="97.67" y2="12.27" gradientTransform="translate(16.27 -43.79) rotate(29.69)" gradientUnits="userSpaceOnUse">
      <stop offset="0" stop-color="#fff"/>
      <stop offset=".14" stop-color="#fff" stop-opacity=".96"/>
      <stop offset=".38" stop-color="#fff" stop-opacity=".84"/>
      <stop offset=".62" stop-color="#fff" stop-opacity=".7"/>
      <stop offset=".73" stop-color="#fff" stop-opacity=".6"/>
      <stop offset=".91" stop-color="#fff" stop-opacity=".45"/>
      <stop offset="1" stop-color="#fff" stop-opacity=".4"/>
    </linearGradient>
    <linearGradient id="_名称未設定グラデーション_54" data-name="名称未設定グラデーション 54" x1="23.39" y1="3.96" x2="37.74" y2="3.96" gradientUnits="userSpaceOnUse">
      <stop offset="0" stop-color="#fff" stop-opacity=".4"/>
      <stop offset=".05" stop-color="#fff" stop-opacity=".53"/>
      <stop offset=".11" stop-color="#fff" stop-opacity=".65"/>
      <stop offset=".18" stop-color="#fff" stop-opacity=".76"/>
      <stop offset=".26" stop-color="#fff" stop-opacity=".85"/>
      <stop offset=".35" stop-color="#fff" stop-opacity=".92"/>
      <stop offset=".46" stop-color="#fff" stop-opacity=".96"/>
      <stop offset=".61" stop-color="#fff" stop-opacity=".99"/>
      <stop offset="1" stop-color="#fff"/>
    </linearGradient>
  </defs>
  <g>
    <path class="cls-2" d="M32.97,14.28c-.84,3.09-2.07,5.95-3.71,8.57s-3.63,4.96-5.98,7.01l-.49-.46c1.06-1.44,2.01-3.03,2.83-4.75.82-1.72,1.54-3.52,2.15-5.4.61-1.87,1.1-3.74,1.48-5.59h3.72v.61Z"/>
    <path class="cls-6" d="M36.12,10.86c.76.66,1.39,1.22,1.9,1.67s.95.9,1.33,1.33c-.08.41-.41.61-.99.61h-14.67l-.3-1.1h10.94l1.79-2.51Z"/>
    <path class="cls-1" d="M33.04,35.67c0,.08-.13.2-.38.38-.25.18-.6.34-1.03.48-.43.14-.94.21-1.52.21h-.61V6.26l3.53-1.44v30.86Z"/>
    <path class="cls-6" d="M32.78,17.47c1.42.53,2.53,1.13,3.34,1.81.81.67,1.38,1.32,1.71,1.96.33.63.48,1.22.44,1.77s-.2.98-.48,1.29c-.28.32-.64.48-1.08.49s-.91-.18-1.39-.59c-.08-.73-.27-1.49-.57-2.26-.3-.77-.67-1.53-1.08-2.28-.42-.75-.86-1.4-1.31-1.96l.42-.23Z"/>
    <path class="cls-6" d="M48.51,3.79c-.03,3.14-.07,6.1-.13,8.87-.06,2.77-.28,5.36-.67,7.75-.38,2.39-1.05,4.62-2.01,6.67-.96,2.05-2.34,3.93-4.14,5.62-1.8,1.7-4.16,3.23-7.07,4.6l-.46-.65c2.38-1.52,4.29-3.17,5.74-4.94,1.44-1.77,2.54-3.71,3.29-5.79.75-2.09,1.25-4.35,1.52-6.78.27-2.43.4-5.05.42-7.87.01-2.81.02-5.83.02-9.04l4.86.46c-.03.28-.15.51-.36.7-.22.19-.55.32-1.01.4Z"/>
    <path class="cls-6" d="M41.51,10.21c.43,1.47.64,2.81.63,4.03s-.17,2.26-.48,3.13c-.3.87-.68,1.55-1.14,2.03-.28.33-.64.56-1.08.68-.44.13-.87.13-1.29.02-.42-.11-.74-.36-.97-.74-.25-.51-.27-1.01-.06-1.5.21-.49.56-.92,1.04-1.27.43-.38.85-.91,1.27-1.58.42-.67.77-1.42,1.04-2.26.28-.84.42-1.7.42-2.58l.61.04Z"/>
    <path class="cls-6" d="M48.47,3.68c.13,3.88.37,7.35.74,10.43.37,3.08.93,5.8,1.69,8.15.76,2.36,1.8,4.41,3.13,6.16s3.03,3.24,5.11,4.48l-.08.46c-.89.18-1.62.6-2.2,1.27-.58.67-.98,1.54-1.18,2.6-2.18-1.82-3.82-4.29-4.92-7.39-1.1-3.1-1.86-6.84-2.26-11.21-.41-4.37-.65-9.33-.72-14.88l.68-.08Z"/>
    <path class="cls-6" d="M59.03,12.45c-.1.2-.29.35-.55.46-.27.1-.6.11-1.01.04-1.14,1.34-2.37,2.63-3.69,3.88-1.32,1.24-2.62,2.29-3.91,3.15l-.49-.38c.53-.76,1.1-1.66,1.71-2.7.61-1.04,1.21-2.15,1.8-3.34.6-1.19,1.15-2.37,1.65-3.53l4.48,2.43Z"/>
  </g>
  <g>
    <path class="cls-6" d="M66.33,11.16h3.5v.61c-.66,3.29-1.7,6.35-3.13,9.16-1.43,2.81-3.3,5.35-5.6,7.6l-.49-.49c1.01-1.54,1.89-3.24,2.64-5.07.75-1.84,1.37-3.76,1.88-5.76.51-2,.91-4.01,1.22-6.04Z"/>
    <path class="cls-6" d="M61.43,11.16h9.12l1.75-2.58c.76.68,1.39,1.26,1.9,1.73.51.47.95.92,1.33,1.35-.1.41-.43.61-.99.61h-12.81l-.3-1.1Z"/>
    <path class="cls-6" d="M66.59,1.97l4.94.49c-.05.28-.17.51-.36.7s-.54.32-1.04.4v32.57c0,.13-.14.28-.42.46-.28.18-.63.33-1.06.47-.43.14-.87.21-1.33.21h-.72V1.97Z"/>
    <path class="cls-6" d="M70.13,15.49c1.32.61,2.35,1.25,3.1,1.92.75.67,1.26,1.33,1.54,1.98.28.65.39,1.24.32,1.77-.06.53-.25.96-.55,1.27-.3.32-.68.47-1.12.46-.44-.01-.89-.22-1.35-.63-.03-.73-.16-1.49-.4-2.28-.24-.78-.54-1.54-.89-2.28-.36-.73-.71-1.39-1.06-1.98l.42-.23Z"/>
    <path class="cls-3" d="M88.29,19.67h3.91v.61c-.56,2.43-.91,9.71-3.82,13.51-2.06,2.69-5.46,6-11.05,7.84s-15.57,1.93-28.96,2.2-25.6-2.03-25.6-2.03c1.84.09,13.86,1.37,25.99,1.42s23.51-1.11,26.33-2.09c5.11-1.76,9.15-3.56,11.61-9.12,1.01-2.28,1.82-8.43,1.58-12.34Z"/>
    <path class="cls-6" d="M73.55,19.67h17.4l2.17-2.77c.53.41,1,.77,1.41,1.1.4.33.84.68,1.29,1.06.46.38.86.75,1.22,1.1-.1.41-.44.61-1.03.61h-22.15l-.3-1.1Z"/>
    <path class="cls-6" d="M74.27,3.75c1.49.81,2.66,1.65,3.5,2.53s1.41,1.73,1.73,2.56c.32.84.44,1.59.36,2.26-.08.67-.29,1.2-.65,1.6-.36.39-.79.59-1.29.59s-1.03-.27-1.56-.8c.02-.94-.08-1.91-.32-2.93s-.56-2.01-.95-2.98c-.39-.97-.8-1.84-1.24-2.6l.42-.23Z"/>
    <path class="cls-6" d="M81,13.63l4.9.91c-.08.25-.23.46-.46.63-.23.17-.6.26-1.1.28-.28.79-.67,1.79-1.16,3.02-.49,1.23-1.03,2.54-1.61,3.93-.58,1.39-1.17,2.74-1.75,4.05-.58,1.3-1.1,2.44-1.56,3.4-.43.18-1,.25-1.71.23-.71-.03-1.43-.19-2.17-.49.43-.76.9-1.67,1.41-2.74.51-1.06,1.03-2.21,1.56-3.44.53-1.23,1.04-2.46,1.52-3.69.48-1.23.91-2.37,1.27-3.42.37-1.05.65-1.94.85-2.68Z"/>
    <path class="cls-6" d="M78.68,26.78c2.94.41,5.43.93,7.47,1.58,2.04.65,3.71,1.34,5.02,2.07,1.3.74,2.29,1.48,2.96,2.22.67.75,1.08,1.44,1.23,2.09.15.65.11,1.18-.11,1.61s-.59.71-1.08.84c-.49.13-1.04.05-1.65-.23-.66-.89-1.66-1.89-3-3.02-1.34-1.13-2.94-2.28-4.81-3.46-1.86-1.18-3.93-2.24-6.21-3.17l.19-.53Z"/>
    <path class="cls-6" d="M82.02,2.57c1.32.91,2.33,1.84,3.04,2.79.71.95,1.18,1.86,1.43,2.72.24.86.29,1.63.15,2.3-.14.67-.39,1.19-.76,1.56-.37.37-.8.54-1.31.51-.51-.02-1.01-.32-1.52-.87.08-.96.04-1.96-.1-3-.14-1.04-.34-2.06-.59-3.08-.25-1.01-.53-1.92-.84-2.74l.49-.19Z"/>
  </g>
  <path id="petal" class="cls-4" d="M95.45,11.73c-3.17,3.8-8.47,5.17-8.47,5.17,0,0,3.68-3.14,5.23-7.85,1.42-4.31.04-5.49,1.59-6.6.15-.11.26.33.75.52.32.12.77-.53.99-.4.18.1.29.6.49.79.37.33.78-.68.88-.46.82,1.8,1.05,5.83-1.45,8.83Z"/>
  <path id="petal-2" data-name="petal" class="cls-5" d="M31.59,7.64c-4.06.81-8.2-.35-8.2-.35,0,0,3.3-.73,6.77-2.98,3.18-2.07,5.22-5.18,6.46-4.06.12.11-.18.55.04.92.14.25.65.34.73.54.06.16-.24.58-.2.81.07.41.61.36.55.56-.41,1.6-2.95,3.92-6.15,4.56Z"/>
</svg>