<?xml version="1.0" encoding="UTF-8"?>
<svg id="layer2" xmlns="http://www.w3.org/2000/svg" xmlns:xlink="http://www.w3.org/1999/xlink" viewBox="0 0 104.5 146.9">
  <defs>
    <style>
      .cls-1 {
        fill: url(#_名称未設定グラデーション_188-3);
      }

      .cls-2 {
        fill: url(#_名称未設定グラデーション_188-5);
      }

      .cls-3 {
        fill: url(#_名称未設定グラデーション_188-6);
      }

      .cls-4 {
        fill: url(#_名称未設定グラデーション_188);
      }

      .cls-5 {
        fill: url(#_名称未設定グラデーション_188-2);
      }

      .cls-6 {
        fill: url(#_名称未設定グラデーション_188-7);
      }

      .cls-7 {
        fill: url(#_名称未設定グラデーション_214);
      }

      .cls-8 {
        fill: none;
        stroke: url(#_名称未設定グラデーション_232);
        stroke-linecap: round;
        stroke-miterlimit: 10;
        stroke-width: 1.18px;
      }

      .cls-9 {
        fill: url(#_名称未設定グラデーション_188-8);
      }

      .cls-10 {
        fill: url(#_名称未設定グラデーション_188-4);
      }

      .cls-11 {
        fill: url(#_名称未設定グラデーション_217);
      }
    </style>
    <linearGradient id="_名称未設定グラデーション_232" data-name="名称未設定グラデーション 232" x1="46.16" y1="58.67" x2="46.16" y2="146.9" gradientUnits="userSpaceOnUse">
      <stop offset="0" stop-color="#28b800"/>
      <stop offset=".2" stop-color="#38c014" stop-opacity=".93"/>
      <stop offset=".55" stop-color="#65d84b" stop-opacity=".73"/>
      <stop offset="1" stop-color="#adfea4" stop-opacity=".4"/>
      <stop offset="1" stop-color="#aeffa5" stop-opacity=".4"/>
    </linearGradient>
    <radialGradient id="_名称未設定グラデーション_217" data-name="名称未設定グラデーション 217" cx="52.25" cy="54.63" fx="52.25" fy="54.63" r="53.45" gradientUnits="userSpaceOnUse">
      <stop offset="0" stop-color="#ff6b9d"/>
      <stop offset=".12" stop-color="#fb6f9f" stop-opacity=".96"/>
      <stop offset=".33" stop-color="#f37da5" stop-opacity=".87"/>
      <stop offset=".6" stop-color="#e692af" stop-opacity=".71"/>
      <stop offset=".62" stop-color="#e694b0" stop-opacity=".7"/>
      <stop offset=".72" stop-color="#e398b1" stop-opacity=".48"/>
      <stop offset=".85" stop-color="#df9db4" stop-opacity=".22"/>
      <stop offset=".95" stop-color="#dda0b5" stop-opacity=".06"/>
      <stop offset="1" stop-color="#dda2b6" stop-opacity="0"/>
    </radialGradient>
    <linearGradient id="_名称未設定グラデーション_188" data-name="名称未設定グラデーション 188" x1="52.25" y1="65.58" x2="52.25" y2="-4.98" gradientUnits="userSpaceOnUse">
      <stop offset="0" stop-color="#ff6b9d"/>
      <stop offset=".12" stop-color="#fb6f9f" stop-opacity=".96"/>
      <stop offset=".33" stop-color="#f37da5" stop-opacity=".87"/>
      <stop offset=".6" stop-color="#e692af" stop-opacity=".71"/>
      <stop offset=".62" stop-color="#e694b0" stop-opacity=".7"/>
      <stop offset=".72" stop-color="#e398b1" stop-opacity=".61"/>
      <stop offset=".9" stop-color="#de9fb4" stop-opacity=".46"/>
      <stop offset="1" stop-color="#dda2b6" stop-opacity=".4"/>
    </linearGradient>
    <linearGradient id="_名称未設定グラデーション_188-2" data-name="名称未設定グラデーション 188" x1="52.25" y1="15.69" x2="52.25" y2="-54.87" gradientTransform="translate(0 60.6) scale(1 -1)" xlink:href="#_名称未設定グラデーション_188"/>
    <linearGradient id="_名称未設定グラデーション_188-3" data-name="名称未設定グラデーション 188" x1="77.19" y1="-9.26" x2="77.19" y2="-79.82" gradientTransform="translate(32.66 132.44) rotate(-90) scale(1 -1)" xlink:href="#_名称未設定グラデーション_188"/>
    <linearGradient id="_名称未設定グラデーション_188-4" data-name="名称未設定グラデーション 188" x1="77.19" y1="-61.51" x2="77.19" y2="-132.07" gradientTransform="translate(121.73 132.44) rotate(-90)" xlink:href="#_名称未設定グラデーション_188"/>
    <linearGradient id="_名称未設定グラデーション_188-5" data-name="名称未設定グラデーション 188" x1="59.5" y1="-68.97" x2="59.5" y2="-139.53" gradientTransform="translate(147.97 41.39) rotate(-135)" xlink:href="#_名称未設定グラデーション_188"/>
    <linearGradient id="_名称未設定グラデーション_188-6" data-name="名称未設定グラデーション 188" x1="86.7" y1="-99.32" x2="86.7" y2="-169.88" gradientTransform="translate(-86.74 41.39) rotate(-45) scale(1 -1)" xlink:href="#_名称未設定グラデーション_188"/>
    <linearGradient id="_名称未設定グラデーション_188-7" data-name="名称未設定グラデーション 188" x1="56.96" y1="-129.06" x2="56.96" y2="-199.62" gradientTransform="translate(-86.74 112.77) rotate(45)" xlink:href="#_名称未設定グラデーション_188"/>
    <linearGradient id="_名称未設定グラデーション_188-8" data-name="名称未設定グラデーション 188" x1="89.01" y1="-161.1" x2="89.01" y2="-231.66" gradientTransform="translate(235.02 112.77) rotate(135) scale(1 -1)" xlink:href="#_名称未設定グラデーション_188"/>
    <radialGradient id="_名称未設定グラデーション_214" data-name="名称未設定グラデーション 214" cx="52.25" cy="54.63" fx="52.25" fy="54.63" r="2.84" gradientUnits="userSpaceOnUse">
      <stop offset="0" stop-color="#ffd005" stop-opacity=".69"/>
      <stop offset="1" stop-color="#ffe087" stop-opacity=".4"/>
    </radialGradient>
  </defs>
  <g id="layer3">
    <path class="cls-8" d="M51.71,59.26c-4.65,24.75,5.35,44.92,3.8,59.82-2.59,24.92-21.56,28.13-32.77,27.06M38.24,129.77c-1.49,7.9-7.01,10.14-4.56,15.8M28.06,136.42c.18,2.79,2.4,5.52,5.11,5.33M35.65,136.48c2.22.65,4.19-1.34,4.19-2.57M55.24,121.21c9.42-.5,11.6-7.71,10.54-9.83M58.35,115.74c0,1.21-.28,3.52.93,4.75M64.69,116.56c1.44,1.82,4.28-.26,4.9-1.1M57.13,121.01c.27,1.55,4.68,5.41,6.98,4.85"/>
  </g>
  <ellipse class="cls-11" cx="52.25" cy="54.63" rx="52.25" ry="54.63"/>
  <g>
    <path class="cls-4 petal clickable-petal" d="M63.5,30.41c-2.42,13.5-11.04,24.84-11.04,24.84,0,0-8.3-11.39-11.04-24.84-2.51-12.31.44-22.01,5.38-24.47.47-.23,1.47,1.22,2.89,1.01.93-.14,1.84-1.59,2.55-1.59.57,0,1.5,1.44,2.25,1.61,1.34.29,1.85-1.43,2.41-1.02,4.44,3.22,8.5,13.83,6.59,24.47Z"/>
    <path class="cls-5 petal clickable-petal" d="M63.5,80.08c-2.42-13.5-11.04-24.84-11.04-24.84,0,0-8.3,11.39-11.04,24.84-2.51,12.31.44,22.01,5.38,24.47.47.23,1.47-1.22,2.89-1.01.93.14,1.84,1.59,2.55,1.59.57,0,1.5-1.44,2.25-1.61,1.34-.29,1.85,1.43,2.41,1.02,4.44-3.22,8.5-13.83,6.59-24.47Z"/>
    <path class="cls-1 petal clickable-petal" d="M77.08,43.99c-13.5,2.42-24.84,11.04-24.84,11.04,0,0,11.39,8.3,24.84,11.04,12.31,2.51,22.01-.44,24.47-5.38.23-.47-1.22-1.47-1.01-2.89.14-.93,1.59-1.84,1.59-2.55,0-.57-1.44-1.5-1.61-2.25-.29-1.34,1.43-1.85,1.02-2.41-3.22-4.44-13.83-8.5-24.47-6.59Z"/>
    <path class="cls-10 petal clickable-petal" d="M25.06,43.99c13.5,2.42,24.84,11.04,24.84,11.04,0,0-11.39,8.3-24.84,11.04-12.31,2.51-22.01-.44-24.47-5.38-.23-.47,1.22-1.47,1.01-2.89C1.46,56.87,0,55.96,0,55.25c0-.57,1.44-1.5,1.61-2.25.29-1.34-1.43-1.85-1.02-2.41,3.22-4.44,13.83-8.5,24.47-6.59Z"/>
    <path class="cls-2 petal clickable-petal" d="M24.3,65c11.26-7.84,25.37-9.76,25.37-9.76,0,0-2.19,13.93-9.76,25.37-6.93,10.48-15.87,15.26-21.11,13.5-.49-.17-.18-1.9-1.33-2.76-.76-.56-2.43-.18-2.93-.68-.4-.4-.04-2.08-.46-2.73-.74-1.15-2.32-.3-2.42-.98-.86-5.41,3.77-15.79,12.64-21.96Z"/>
    <path class="cls-3 petal clickable-petal" d="M77.62,67.22c-11.26-7.84-25.37-9.76-25.37-9.76,0,0,2.19,13.93,9.76,25.37,6.93,10.48,15.87,15.26,21.11,13.5.49-.17.18-1.9,1.33-2.76.76-.56,2.43-.18,2.93-.68.4-.4.04-2.08.46-2.73.74-1.15,2.32-.3,2.42-.98.86-5.41-3.77-15.79-12.64-21.96Z"/>
    <path class="cls-6 petal clickable-petal" d="M77.62,44.88c-11.26,7.84-25.37,9.76-25.37,9.76,0,0,2.19-13.93,9.76-25.37,6.93-10.48,15.87-15.26,21.11-13.5.49.17.18,1.9,1.33,2.76.76.56,2.43.18,2.93.68.4.4.04,2.08.46,2.73.74,1.15,2.32.3,2.42.98.86,5.41-3.77,15.79-12.64,21.96Z"/>
    <path class="cls-9 petal clickable-petal" d="M25.35,44.88c11.26,7.84,25.37,9.76,25.37,9.76,0,0-2.19-13.93-9.76-25.37-6.93-10.48-15.87-15.26-21.11-13.5-.49.17-.18,1.9-1.33,2.76-.76.56-2.43.18-2.93.68-.4.4-.04,2.08-.46,2.73-.74,1.15-2.32.3-2.42.98-.86,5.41,3.77,15.79,12.64,21.96Z"/>
  </g>
  <circle class="cls-7" cx="52.25" cy="54.63" r="2.84"/>
</svg>