<svg viewBox="-50 -50 300 300" xmlns="http://www.w3.org/2000/svg" style="overflow: visible;">
  <!-- ネモフィラのプレースホルダーSVG -->
  <defs>
    <radialGradient id="nemophila-gradient" cx="50%" cy="50%" r="50%">
      <stop offset="0%" style="stop-color:#87ceeb;stop-opacity:1" />
      <stop offset="50%" style="stop-color:#3498db;stop-opacity:1" />
      <stop offset="100%" style="stop-color:#2980b9;stop-opacity:1" />
    </radialGradient>
  </defs>
  
  <!-- 花びら -->
  <g class="nemophila-petals">
    <ellipse class="petal clickable-petal" cx="100" cy="70" rx="15" ry="20" fill="url(#nemophila-gradient)" transform="rotate(0 100 100)"/>
    <ellipse class="petal clickable-petal" cx="100" cy="70" rx="15" ry="20" fill="#3498db" transform="rotate(72 100 100)"/>
    <ellipse class="petal clickable-petal" cx="100" cy="70" rx="15" ry="20" fill="url(#nemophila-gradient)" transform="rotate(144 100 100)"/>
    <ellipse class="petal clickable-petal" cx="100" cy="70" rx="15" ry="20" fill="#3498db" transform="rotate(216 100 100)"/>
    <ellipse class="petal clickable-petal" cx="100" cy="70" rx="15" ry="20" fill="url(#nemophila-gradient)" transform="rotate(288 100 100)"/>
  </g>
  
  <!-- 花びらの白い縁取り -->
  <g class="petal-edges">
    <ellipse cx="100" cy="70" rx="15" ry="20" fill="none" stroke="#ffffff" stroke-width="1" opacity="0.6" transform="rotate(0 100 100)"/>
    <ellipse cx="100" cy="70" rx="15" ry="20" fill="none" stroke="#ffffff" stroke-width="1" opacity="0.6" transform="rotate(72 100 100)"/>
    <ellipse cx="100" cy="70" rx="15" ry="20" fill="none" stroke="#ffffff" stroke-width="1" opacity="0.6" transform="rotate(144 100 100)"/>
    <ellipse cx="100" cy="70" rx="15" ry="20" fill="none" stroke="#ffffff" stroke-width="1" opacity="0.6" transform="rotate(216 100 100)"/>
    <ellipse cx="100" cy="70" rx="15" ry="20" fill="none" stroke="#ffffff" stroke-width="1" opacity="0.6" transform="rotate(288 100 100)"/>
  </g>
  
  <!-- 中心部 -->
  <circle class="center" cx="100" cy="100" r="8" fill="#ffffff"/>
  <circle class="center-inner" cx="100" cy="100" r="4" fill="#f1c40f"/>
  
  <!-- 茎 -->
  <rect class="stem" x="98" y="108" width="4" height="65" fill="#27ae60"/>
  
  <!-- 小さな葉 -->
  <ellipse class="leaf" cx="80" cy="135" rx="8" ry="15" fill="#2ecc71" transform="rotate(-20 80 135)"/>
  <ellipse class="leaf" cx="120" cy="140" rx="6" ry="12" fill="#27ae60" transform="rotate(25 120 140)"/>
  <ellipse class="leaf" cx="85" cy="160" rx="5" ry="10" fill="#2ecc71" transform="rotate(-10 85 160)"/>
</svg>
