<svg viewBox="-50 -50 300 300" xmlns="http://www.w3.org/2000/svg" style="overflow: visible;">
  <!-- ノースポール（デイジー）のプレースホルダーSVG -->
  <defs>
    <linearGradient id="northpole-petal" x1="0%" y1="0%" x2="100%" y2="100%">
      <stop offset="0%" style="stop-color:#ffffff;stop-opacity:1" />
      <stop offset="100%" style="stop-color:#f8f9fa;stop-opacity:1" />
    </linearGradient>
    <radialGradient id="northpole-center" cx="50%" cy="50%" r="50%">
      <stop offset="0%" style="stop-color:#fff176;stop-opacity:1" />
      <stop offset="70%" style="stop-color:#f1c40f;stop-opacity:1" />
      <stop offset="100%" style="stop-color:#f39c12;stop-opacity:1" />
    </radialGradient>
  </defs>
  
  <!-- 外側の花びら -->
  <g class="outer-petals">
    <ellipse class="petal clickable-petal" cx="100" cy="55" rx="5" ry="18" fill="url(#northpole-petal)" transform="rotate(0 100 100)"/>
    <ellipse class="petal clickable-petal" cx="100" cy="55" rx="5" ry="18" fill="url(#northpole-petal)" transform="rotate(20 100 100)"/>
    <ellipse class="petal clickable-petal" cx="100" cy="55" rx="5" ry="18" fill="url(#northpole-petal)" transform="rotate(40 100 100)"/>
    <ellipse class="petal clickable-petal" cx="100" cy="55" rx="5" ry="18" fill="url(#northpole-petal)" transform="rotate(60 100 100)"/>
    <ellipse class="petal clickable-petal" cx="100" cy="55" rx="5" ry="18" fill="url(#northpole-petal)" transform="rotate(80 100 100)"/>
    <ellipse class="petal clickable-petal" cx="100" cy="55" rx="5" ry="18" fill="url(#northpole-petal)" transform="rotate(100 100 100)"/>
    <ellipse class="petal clickable-petal" cx="100" cy="55" rx="5" ry="18" fill="url(#northpole-petal)" transform="rotate(120 100 100)"/>
    <ellipse class="petal clickable-petal" cx="100" cy="55" rx="5" ry="18" fill="url(#northpole-petal)" transform="rotate(140 100 100)"/>
    <ellipse class="petal clickable-petal" cx="100" cy="55" rx="5" ry="18" fill="url(#northpole-petal)" transform="rotate(160 100 100)"/>
    <ellipse class="petal clickable-petal" cx="100" cy="55" rx="5" ry="18" fill="url(#northpole-petal)" transform="rotate(180 100 100)"/>
    <ellipse class="petal clickable-petal" cx="100" cy="55" rx="5" ry="18" fill="url(#northpole-petal)" transform="rotate(200 100 100)"/>
    <ellipse class="petal clickable-petal" cx="100" cy="55" rx="5" ry="18" fill="url(#northpole-petal)" transform="rotate(220 100 100)"/>
    <ellipse class="petal clickable-petal" cx="100" cy="55" rx="5" ry="18" fill="url(#northpole-petal)" transform="rotate(240 100 100)"/>
    <ellipse class="petal clickable-petal" cx="100" cy="55" rx="5" ry="18" fill="url(#northpole-petal)" transform="rotate(260 100 100)"/>
    <ellipse class="petal clickable-petal" cx="100" cy="55" rx="5" ry="18" fill="url(#northpole-petal)" transform="rotate(280 100 100)"/>
    <ellipse class="petal clickable-petal" cx="100" cy="55" rx="5" ry="18" fill="url(#northpole-petal)" transform="rotate(300 100 100)"/>
    <ellipse class="petal clickable-petal" cx="100" cy="55" rx="5" ry="18" fill="url(#northpole-petal)" transform="rotate(320 100 100)"/>
    <ellipse class="petal clickable-petal" cx="100" cy="55" rx="5" ry="18" fill="url(#northpole-petal)" transform="rotate(340 100 100)"/>
  </g>
  
  <!-- 花びらの影 -->
  <g class="petal-shadows" opacity="0.1">
    <ellipse cx="100" cy="57" rx="4" ry="16" fill="#cccccc" transform="rotate(10 100 100)"/>
    <ellipse cx="100" cy="57" rx="4" ry="16" fill="#cccccc" transform="rotate(50 100 100)"/>
    <ellipse cx="100" cy="57" rx="4" ry="16" fill="#cccccc" transform="rotate(90 100 100)"/>
    <ellipse cx="100" cy="57" rx="4" ry="16" fill="#cccccc" transform="rotate(130 100 100)"/>
    <ellipse cx="100" cy="57" rx="4" ry="16" fill="#cccccc" transform="rotate(170 100 100)"/>
    <ellipse cx="100" cy="57" rx="4" ry="16" fill="#cccccc" transform="rotate(210 100 100)"/>
    <ellipse cx="100" cy="57" rx="4" ry="16" fill="#cccccc" transform="rotate(250 100 100)"/>
    <ellipse cx="100" cy="57" rx="4" ry="16" fill="#cccccc" transform="rotate(290 100 100)"/>
    <ellipse cx="100" cy="57" rx="4" ry="16" fill="#cccccc" transform="rotate(330 100 100)"/>
  </g>
  
  <!-- 中心部 -->
  <circle class="center" cx="100" cy="100" r="15" fill="url(#northpole-center)"/>
  
  <!-- 中心部のテクスチャ -->
  <g class="center-texture">
    <circle cx="95" cy="95" r="1" fill="#e67e22" opacity="0.8"/>
    <circle cx="105" cy="95" r="1" fill="#e67e22" opacity="0.8"/>
    <circle cx="100" cy="105" r="1" fill="#e67e22" opacity="0.8"/>
    <circle cx="92" cy="102" r="0.8" fill="#d35400" opacity="0.6"/>
    <circle cx="108" cy="102" r="0.8" fill="#d35400" opacity="0.6"/>
    <circle cx="100" cy="92" r="0.8" fill="#d35400" opacity="0.6"/>
    <circle cx="96" cy="108" r="0.6" fill="#e67e22" opacity="0.4"/>
    <circle cx="104" cy="108" r="0.6" fill="#e67e22" opacity="0.4"/>
  </g>
  
  <!-- 茎 -->
  <rect class="stem" x="98" y="115" width="4" height="70" fill="#27ae60"/>
  
  <!-- 葉 -->
  <ellipse class="leaf" cx="75" cy="145" rx="10" ry="18" fill="#2ecc71" transform="rotate(-15 75 145)"/>
  <ellipse class="leaf" cx="125" cy="150" rx="8" ry="15" fill="#27ae60" transform="rotate(20 125 150)"/>
  <ellipse class="leaf" cx="80" cy="170" rx="6" ry="12" fill="#2ecc71" transform="rotate(-5 80 170)"/>
</svg>
