<?xml version="1.0" encoding="UTF-8"?>
<svg xmlns="http://www.w3.org/2000/svg" xmlns:xlink="http://www.w3.org/1999/xlink" viewBox="0 0 151.38 196.59">
  <defs>
    <style>
      .cls-1 {
        fill: url(#_名称未設定グラデーション_50-8);
      }

      .cls-2 {
        fill: url(#_名称未設定グラデーション_50-5);
      }

      .cls-3 {
        fill: url(#_名称未設定グラデーション_50-2);
      }

      .cls-4 {
        fill: url(#_名称未設定グラデーション_50-3);
      }

      .cls-5 {
        fill: url(#_名称未設定グラデーション_46);
      }

      .cls-6 {
        fill: url(#_名称未設定グラデーション_50);
      }

      .cls-7 {
        fill: url(#_名称未設定グラデーション_50-4);
      }

      .cls-8 {
        fill: url(#_名称未設定グラデーション_26-3);
      }

      .cls-9 {
        fill: url(#_名称未設定グラデーション_232);
      }

      .cls-10 {
        fill: url(#_名称未設定グラデーション_26-13);
      }

      .cls-11 {
        fill: url(#_名称未設定グラデーション_50-7);
      }

      .cls-12 {
        fill: none;
        stroke: url(#_名称未設定グラデーション_232-3);
        stroke-linecap: round;
        stroke-miterlimit: 10;
        stroke-width: 1.62px;
      }

      .cls-13 {
        fill: url(#_名称未設定グラデーション_26);
      }

      .cls-14 {
        fill: url(#_名称未設定グラデーション_26-4);
      }

      .cls-15 {
        fill: url(#_名称未設定グラデーション_50-10);
      }

      .cls-16 {
        fill: url(#_名称未設定グラデーション_50-11);
      }

      .cls-17 {
        fill: url(#_名称未設定グラデーション_50-9);
      }

      .cls-18 {
        fill: url(#_名称未設定グラデーション_26-2);
      }

      .cls-19 {
        fill: url(#_名称未設定グラデーション_26-11);
      }

      .cls-20 {
        fill: url(#_名称未設定グラデーション_50-6);
      }

      .cls-21 {
        fill: url(#_名称未設定グラデーション_232-2);
      }

      .cls-22 {
        fill: url(#_名称未設定グラデーション_26-5);
      }

      .cls-23 {
        fill: url(#_名称未設定グラデーション_26-8);
      }

      .cls-24 {
        fill: url(#_名称未設定グラデーション_26-12);
      }

      .cls-25 {
        fill: url(#_名称未設定グラデーション_50-12);
      }

      .cls-26 {
        fill: url(#_名称未設定グラデーション_26-10);
      }

      .cls-27 {
        fill: url(#_名称未設定グラデーション_26-9);
      }

      .cls-28 {
        fill: url(#_名称未設定グラデーション_26-7);
      }

      .cls-29 {
        fill: url(#_名称未設定グラデーション_26-6);
      }

      .cls-30 {
        fill: url(#_名称未設定グラデーション_50-13);
      }
    </style>
    <linearGradient id="_名称未設定グラデーション_232" data-name="名称未設定グラデーション 232" x1="38.53" y1="152.69" x2="65.42" y2="183.73" gradientUnits="userSpaceOnUse">
      <stop offset="0" stop-color="#28b800"/>
      <stop offset=".2" stop-color="#38c014" stop-opacity=".93"/>
      <stop offset=".55" stop-color="#65d84b" stop-opacity=".73"/>
      <stop offset="1" stop-color="#adfea4" stop-opacity=".4"/>
      <stop offset="1" stop-color="#aeffa5" stop-opacity=".4"/>
    </linearGradient>
    <linearGradient id="_名称未設定グラデーション_232-2" data-name="名称未設定グラデーション 232" x1="23.24" y1="135.15" x2="51.87" y2="168.2" gradientTransform="translate(217.4 52.69) rotate(-145.58) scale(1 -1)" xlink:href="#_名称未設定グラデーション_232"/>
    <linearGradient id="_名称未設定グラデーション_232-3" data-name="名称未設定グラデーション 232" x1="57.89" y1="74.88" x2="57.89" y2="196.59" xlink:href="#_名称未設定グラデーション_232"/>
    <linearGradient id="_名称未設定グラデーション_26" data-name="名称未設定グラデーション 26" x1="75.69" y1="0" x2="75.69" y2="61.07" gradientTransform="translate(150.94 151.82) rotate(-179.67)" gradientUnits="userSpaceOnUse">
      <stop offset="0" stop-color="#f0ff4e" stop-opacity=".5"/>
      <stop offset=".36" stop-color="#f4f738" stop-opacity=".67"/>
      <stop offset="1" stop-color="#ffe90d"/>
    </linearGradient>
    <linearGradient id="_名称未設定グラデーション_26-2" data-name="名称未設定グラデーション 26" x1="75.69" x2="75.69" gradientTransform="translate(106.94 178.07) rotate(-151.98)" xlink:href="#_名称未設定グラデーション_26"/>
    <linearGradient id="_名称未設定グラデーション_26-3" data-name="名称未設定グラデーション 26" x1="75.69" y1="0" x2="75.69" y2="61.07" gradientTransform="translate(55.79 180.87) rotate(-124.28)" xlink:href="#_名称未設定グラデーション_26"/>
    <linearGradient id="_名称未設定グラデーション_26-4" data-name="名称未設定グラデーション 26" x1="75.69" y1="0" x2="75.69" y2="61.07" gradientTransform="translate(9.19 159.57) rotate(-96.59)" xlink:href="#_名称未設定グラデーション_26"/>
    <linearGradient id="_名称未設定グラデーション_26-5" data-name="名称未設定グラデーション 26" x1="75.69" y1="0" x2="75.69" y2="61.07" gradientTransform="translate(-22.17 119.06) rotate(-68.9)" xlink:href="#_名称未設定グラデーション_26"/>
    <linearGradient id="_名称未設定グラデーション_26-6" data-name="名称未設定グラデーション 26" x1="75.69" y1="0" x2="75.69" y2="61.07" gradientTransform="translate(-31.12 68.61) rotate(-41.21)" xlink:href="#_名称未設定グラデーション_26"/>
    <linearGradient id="_名称未設定グラデーション_26-7" data-name="名称未設定グラデーション 26" x1="75.69" y1="0" x2="75.69" y2="61.07" gradientTransform="translate(-15.59 19.78) rotate(-13.51)" xlink:href="#_名称未設定グラデーション_26"/>
    <linearGradient id="_名称未設定グラデーション_26-8" data-name="名称未設定グラデーション 26" x1="75.69" y1="0" x2="75.69" gradientTransform="translate(20.85 -16.23) rotate(14.18)" xlink:href="#_名称未設定グラデーション_26"/>
    <linearGradient id="_名称未設定グラデーション_26-9" data-name="名称未設定グラデーション 26" x1="75.69" y1="0" x2="75.69" y2="61.07" gradientTransform="translate(69.85 -31.19) rotate(41.87)" xlink:href="#_名称未設定グラデーション_26"/>
    <linearGradient id="_名称未設定グラデーション_26-10" data-name="名称未設定グラデーション 26" x1="75.69" y1="0" x2="75.69" y2="61.07" gradientTransform="translate(120.19 -21.67) rotate(69.56)" xlink:href="#_名称未設定グラデーション_26"/>
    <linearGradient id="_名称未設定グラデーション_26-11" data-name="名称未設定グラデーション 26" x1="75.69" y1="0" x2="75.69" y2="61.07" gradientTransform="translate(160.34 10.16) rotate(97.25)" xlink:href="#_名称未設定グラデーション_26"/>
    <linearGradient id="_名称未設定グラデーション_26-12" data-name="名称未設定グラデーション 26" x1="75.69" x2="75.69" gradientTransform="translate(181.09 57.01) rotate(124.95)" xlink:href="#_名称未設定グラデーション_26"/>
    <linearGradient id="_名称未設定グラデーション_26-13" data-name="名称未設定グラデーション 26" x1="75.69" y1="0" x2="75.69" gradientTransform="translate(177.7 108.13) rotate(152.64)" xlink:href="#_名称未設定グラデーション_26"/>
    <linearGradient id="_名称未設定グラデーション_50" data-name="名称未設定グラデーション 50" x1="75.69" y1="24.67" x2="75.69" y2="76.77" gradientTransform="translate(151.36 151.4) rotate(-179.99)" gradientUnits="userSpaceOnUse">
      <stop offset="0" stop-color="#feffe6" stop-opacity=".1"/>
      <stop offset=".22" stop-color="#fefee6" stop-opacity=".28"/>
      <stop offset=".7" stop-color="#fefce6" stop-opacity=".72"/>
      <stop offset="1" stop-color="#fffce6"/>
    </linearGradient>
    <linearGradient id="_名称未設定グラデーション_50-2" data-name="名称未設定グラデーション 50" x1="75.69" y1="24.67" x2="75.69" y2="76.77" gradientTransform="translate(13.36 173.49) rotate(-90)" xlink:href="#_名称未設定グラデーション_50"/>
    <linearGradient id="_名称未設定グラデーション_50-3" data-name="名称未設定グラデーション 50" x1="75.69" y1="24.67" x2="75.69" y2="76.77" gradientTransform="translate(4.42 165.56) rotate(-90)" xlink:href="#_名称未設定グラデーション_50"/>
    <linearGradient id="_名称未設定グラデーション_50-4" data-name="名称未設定グラデーション 50" x1="75.69" y1="24.67" x2="75.69" y2="76.77" gradientTransform="translate(.18 154.38) rotate(-90)" xlink:href="#_名称未設定グラデーション_50"/>
    <linearGradient id="_名称未設定グラデーション_50-5" data-name="名称未設定グラデーション 50" x1="75.69" y1="24.67" x2="75.69" y2="76.77" gradientTransform="translate(-23.34 16.11)" xlink:href="#_名称未設定グラデーション_50"/>
    <linearGradient id="_名称未設定グラデーション_50-6" data-name="名称未設定グラデーション 50" x1="75.69" y1="24.67" x2="75.69" y2="76.77" gradientTransform="translate(-16.55 6.28)" xlink:href="#_名称未設定グラデーション_50"/>
    <linearGradient id="_名称未設定グラデーション_50-7" data-name="名称未設定グラデーション 50" x1="75.69" y1="24.67" x2="75.69" y2="76.77" gradientTransform="translate(-5.97 .72)" xlink:href="#_名称未設定グラデーション_50"/>
    <linearGradient id="_名称未設定グラデーション_50-8" data-name="名称未設定グラデーション 50" x1="75.69" y1="24.67" x2="75.69" y2="76.77" gradientTransform="translate(132.4 -24.24) rotate(90)" xlink:href="#_名称未設定グラデーション_50"/>
    <linearGradient id="_名称未設定グラデーション_50-9" data-name="名称未設定グラデーション 50" x1="75.69" y1="24.67" x2="75.69" y2="76.77" gradientTransform="translate(142.98 -18.68) rotate(90)" xlink:href="#_名称未設定グラデーション_50"/>
    <linearGradient id="_名称未設定グラデーション_50-10" data-name="名称未設定グラデーション 50" x1="75.69" y1="24.67" x2="75.69" y2="76.77" gradientTransform="translate(149.76 -8.85) rotate(90)" xlink:href="#_名称未設定グラデーション_50"/>
    <linearGradient id="_名称未設定グラデーション_50-11" data-name="名称未設定グラデーション 50" x1="75.69" y1="24.67" x2="75.69" y2="76.77" gradientTransform="translate(176.17 129.43) rotate(-180)" xlink:href="#_名称未設定グラデーション_50"/>
    <linearGradient id="_名称未設定グラデーション_50-12" data-name="名称未設定グラデーション 50" x1="75.69" y1="24.67" x2="75.69" y2="76.77" gradientTransform="translate(171.93 140.6) rotate(-180)" xlink:href="#_名称未設定グラデーション_50"/>
    <linearGradient id="_名称未設定グラデーション_50-13" data-name="名称未設定グラデーション 50" x1="75.69" y1="24.67" x2="75.69" y2="76.77" gradientTransform="translate(162.98 148.52) rotate(-180)" xlink:href="#_名称未設定グラデーション_50"/>
    <radialGradient id="_名称未設定グラデーション_46" data-name="名称未設定グラデーション 46" cx="74.6" cy="73.52" fx="74.6" fy="73.52" r="27.25" gradientUnits="userSpaceOnUse">
      <stop offset="0" stop-color="#845f00"/>
      <stop offset=".49" stop-color="#876100" stop-opacity=".99"/>
      <stop offset=".69" stop-color="#966800" stop-opacity=".96"/>
      <stop offset=".84" stop-color="#ae7600" stop-opacity=".91"/>
      <stop offset=".96" stop-color="#d08800" stop-opacity=".83"/>
      <stop offset="1" stop-color="#de9000" stop-opacity=".8"/>
    </radialGradient>
  </defs>
  <g id="layer1">
    <g id="layer2">
      <g>
        <path class="cls-9" d="M62.73,166.55c3.14,8.15-4.84,23.7-4.84,23.7,0,0-4.35-6.14-10.07-12.75-5.72-6.6-12.65-21.91-12.65-21.91,0,0,22.72-1.62,27.56,10.96Z"/>
        <path class="cls-21" d="M96.27,150c-8.34,2.61-15.66,16.19-15.66,16.19,0,0,17.72-1.23,26.17-3.44,8.45-2.21,15.43-10.29,15.43-10.29,0,0-15.43-5.74-25.94-2.46Z"/>
        <path class="cls-12" d="M75.14,75.69c-6.41,34.14,7.38,61.96,5.24,82.52-3.57,34.38-29.74,38.8-45.21,37.33"/>
      </g>
    </g>
    <g>
      <path class="cls-13" d="M65.91,120.79c.15-26.31,9.69-30.48,9.69-30.48,0,0,9.97,5.59,9.34,30.59-.43,16.86-9.69,30.48-9.69,30.48,0,0-9.43-13.73-9.34-30.59Z"/>
      <path class="cls-18" d="M46.07,111.08c12.36-23.23,22.74-22.49,22.74-22.49,0,0,6.23,9.59-5.95,31.43-8.21,14.73-22.74,22.49-22.74,22.49,0,0-1.97-16.54,5.95-31.43Z"/>
      <path class="cls-8" d="M33.02,93.26c21.74-14.82,30.59-9.34,30.59-9.34,0,0,1.06,11.38-19.87,25.06-14.12,9.23-30.59,9.34-30.59,9.34,0,0,5.94-15.56,19.87-25.06Z"/>
      <path class="cls-14" d="M29.74,71.42c26.14-3.02,31.43,5.94,31.43,5.94,0,0-4.35,10.57-29.24,12.95-16.79,1.61-31.43-5.94-31.43-5.94,0,0,12.49-11.02,29.24-12.95Z"/>
      <path class="cls-22" d="M36.99,50.55c24.55,9.47,25.06,19.87,25.06,19.87,0,0-8.77,7.34-31.91-2.12-15.61-6.38-25.06-19.87-25.06-19.87,0,0,16.18-3.95,31.91,2.12Z"/>
      <path class="cls-29" d="M53.11,35.45c17.33,19.8,12.96,29.24,12.96,29.24,0,0-11.17,2.42-27.27-16.71-10.86-12.9-12.96-29.24-12.96-29.24,0,0,16.16,4.02,27.27,16.71Z"/>
      <path class="cls-28" d="M74.4,29.56c6.15,25.58-2.11,31.91-2.11,31.91,0,0-11.02-3.05-16.39-27.47-3.62-16.47,2.11-31.91,2.11-31.91,0,0,12.44,11.07,16.39,27.47Z"/>
      <path class="cls-23" d="M95.98,34.24c-6.44,25.51-16.7,27.28-16.7,27.28,0,0-8.34-7.82-1.74-31.94,4.45-16.27,16.7-27.28,16.7-27.28,0,0,5.87,15.59,1.74,31.94Z"/>
      <path class="cls-27" d="M112.92,48.42c-17.56,19.59-27.47,16.39-27.47,16.39,0,0-3.75-10.8,13.3-29.09,11.5-12.34,27.47-16.39,27.47-16.39,0,0-2.04,16.53-13.3,29.09Z"/>
      <path class="cls-26" d="M121.33,68.85c-24.66,9.19-31.94,1.75-31.94,1.75,0,0,1.7-11.3,25.29-19.58,15.92-5.58,31.94-1.75,31.94-1.75,0,0-9.49,13.69-25.29,19.58Z"/>
      <path class="cls-19" d="M119.28,90.84c-26.1-3.32-29.09-13.29-29.09-13.29,0,0,6.76-9.22,31.49-5.58,16.69,2.46,29.09,13.29,29.09,13.29,0,0-14.76,7.71-31.49,5.58Z"/>
      <path class="cls-24" d="M107.25,109.36c-21.57-15.07-19.58-25.29-19.58-25.29,0,0,10.27-5.03,30.48,9.7,13.63,9.93,19.58,25.29,19.58,25.29,0,0-16.66-.03-30.48-9.7Z"/>
      <path class="cls-10" d="M87.99,120.17c-12.09-23.37-5.59-31.49-5.59-31.49,0,0,11.43.32,22.48,22.75,7.46,15.13,5.59,31.49,5.59,31.49,0,0-14.73-7.77-22.48-22.75Z"/>
    </g>
    <g>
      <ellipse class="cls-6" cx="75.68" cy="100.66" rx="1.45" ry="26.05"/>
      <ellipse class="cls-3" cx="64.08" cy="97.8" rx="26.05" ry="1.45" transform="translate(-52.29 109.06) rotate(-62.29)"/>
      <ellipse class="cls-4" cx="55.14" cy="89.87" rx="26.05" ry="1.45" transform="translate(-41.28 47.21) rotate(-34.6)"/>
      <ellipse class="cls-7" cx="50.9" cy="78.69" rx="26.05" ry="1.45" transform="translate(-9.1 6.69) rotate(-6.91)"/>
      <ellipse class="cls-2" cx="52.35" cy="66.83" rx="1.45" ry="26.05" transform="translate(-28.71 92.06) rotate(-69.22)"/>
      <ellipse class="cls-20" cx="59.14" cy="57" rx="1.45" ry="26.05" transform="translate(-22.92 53.53) rotate(-41.52)"/>
      <ellipse class="cls-11" cx="69.72" cy="51.45" rx="1.45" ry="26.05" transform="translate(-10.28 18.16) rotate(-13.83)"/>
      <ellipse class="cls-1" cx="81.67" cy="51.45" rx="26.05" ry="1.45" transform="translate(12.16 118.42) rotate(-76.14)"/>
      <ellipse class="cls-17" cx="92.25" cy="57.01" rx="26.05" ry="1.45" transform="translate(-11.6 88.23) rotate(-48.45)"/>
      <ellipse class="cls-15" cx="99.04" cy="66.84" rx="26.05" ry="1.45" transform="translate(-17.26 39.43) rotate(-20.75)"/>
      <ellipse class="cls-16" cx="100.48" cy="78.71" rx="1.45" ry="26.05" transform="translate(10.21 168.94) rotate(-83.06)"/>
      <ellipse class="cls-25" cx="96.24" cy="89.88" rx="1.45" ry="26.05" transform="translate(-32.41 117.99) rotate(-55.37)"/>
      <ellipse class="cls-30" cx="87.29" cy="97.8" rx="1.45" ry="26.05" transform="translate(-35.44 51.74) rotate(-27.68)"/>
    </g>
  </g>
  <g id="layer3">
    <ellipse class="cls-5" cx="74.6" cy="73.52" rx="26.78" ry="27.71"/>
  </g>
</svg>