<svg viewBox="-50 -50 300 300" xmlns="http://www.w3.org/2000/svg" style="overflow: visible;">
  <!-- ひまわりのプレースホルダーSVG -->
  <defs>
    <radialGradient id="sunflower-center" cx="50%" cy="50%" r="50%">
      <stop offset="0%" style="stop-color:#8b4513;stop-opacity:1" />
      <stop offset="70%" style="stop-color:#a0522d;stop-opacity:1" />
      <stop offset="100%" style="stop-color:#8b4513;stop-opacity:1" />
    </radialGradient>
    <linearGradient id="sunflower-petal" x1="0%" y1="0%" x2="100%" y2="100%">
      <stop offset="0%" style="stop-color:#ffd700;stop-opacity:1" />
      <stop offset="100%" style="stop-color:#f1c40f;stop-opacity:1" />
    </linearGradient>
  </defs>
  
  <!-- 花びら -->
  <g class="sunflower-petals">
    <ellipse class="petal clickable-petal" cx="100" cy="40" rx="8" ry="25" fill="url(#sunflower-petal)" transform="rotate(0 100 100)"/>
    <ellipse class="petal clickable-petal" cx="100" cy="40" rx="8" ry="25" fill="url(#sunflower-petal)" transform="rotate(30 100 100)"/>
    <ellipse class="petal clickable-petal" cx="100" cy="40" rx="8" ry="25" fill="url(#sunflower-petal)" transform="rotate(60 100 100)"/>
    <ellipse class="petal clickable-petal" cx="100" cy="40" rx="8" ry="25" fill="url(#sunflower-petal)" transform="rotate(90 100 100)"/>
    <ellipse class="petal clickable-petal" cx="100" cy="40" rx="8" ry="25" fill="url(#sunflower-petal)" transform="rotate(120 100 100)"/>
    <ellipse class="petal clickable-petal" cx="100" cy="40" rx="8" ry="25" fill="url(#sunflower-petal)" transform="rotate(150 100 100)"/>
    <ellipse class="petal clickable-petal" cx="100" cy="40" rx="8" ry="25" fill="url(#sunflower-petal)" transform="rotate(180 100 100)"/>
    <ellipse class="petal clickable-petal" cx="100" cy="40" rx="8" ry="25" fill="url(#sunflower-petal)" transform="rotate(210 100 100)"/>
    <ellipse class="petal clickable-petal" cx="100" cy="40" rx="8" ry="25" fill="url(#sunflower-petal)" transform="rotate(240 100 100)"/>
    <ellipse class="petal clickable-petal" cx="100" cy="40" rx="8" ry="25" fill="url(#sunflower-petal)" transform="rotate(270 100 100)"/>
    <ellipse class="petal clickable-petal" cx="100" cy="40" rx="8" ry="25" fill="url(#sunflower-petal)" transform="rotate(300 100 100)"/>
    <ellipse class="petal clickable-petal" cx="100" cy="40" rx="8" ry="25" fill="url(#sunflower-petal)" transform="rotate(330 100 100)"/>
  </g>
  
  <!-- 中心部 -->
  <circle class="center" cx="100" cy="100" r="30" fill="url(#sunflower-center)"/>
  
  <!-- 中心部のパターン -->
  <g class="center-pattern">
    <circle cx="90" cy="90" r="2" fill="#654321"/>
    <circle cx="110" cy="90" r="2" fill="#654321"/>
    <circle cx="100" cy="110" r="2" fill="#654321"/>
    <circle cx="85" cy="105" r="1.5" fill="#654321"/>
    <circle cx="115" cy="105" r="1.5" fill="#654321"/>
    <circle cx="95" cy="85" r="1.5" fill="#654321"/>
    <circle cx="105" cy="85" r="1.5" fill="#654321"/>
  </g>
  
  <!-- 茎 -->
  <rect class="stem" x="98" y="130" width="4" height="60" fill="#228b22"/>
  
  <!-- 葉 -->
  <ellipse class="leaf" cx="70" cy="150" rx="20" ry="12" fill="#32cd32" transform="rotate(-30 70 150)"/>
  <ellipse class="leaf" cx="130" cy="155" rx="18" ry="10" fill="#228b22" transform="rotate(25 130 155)"/>
</svg>
