<?xml version="1.0" encoding="UTF-8"?>
<svg xmlns="http://www.w3.org/2000/svg" xmlns:xlink="http://www.w3.org/1999/xlink" viewBox="0 0 102.04 170.6">
  <defs>
    <style>
      .cls-1 {
        fill: url(#_名称未設定グラデーション_50-8);
      }

      .cls-2 {
        fill: url(#_名称未設定グラデーション_50-5);
      }

      .cls-3 {
        fill: url(#_名称未設定グラデーション_50-2);
      }

      .cls-4 {
        fill: url(#_名称未設定グラデーション_50-3);
      }

      .cls-5 {
        fill: url(#_名称未設定グラデーション_46);
      }

      .cls-6 {
        fill: url(#_名称未設定グラデーション_50);
      }

      .cls-7 {
        fill: url(#_名称未設定グラデーション_50-4);
      }

      .cls-8 {
        fill: url(#_名称未設定グラデーション_232);
      }

      .cls-9 {
        fill: url(#_名称未設定グラデーション_50-7);
      }

      .cls-10 {
        fill: none;
        stroke: url(#_名称未設定グラデーション_232-3);
        stroke-linecap: round;
        stroke-miterlimit: 10;
        stroke-width: 1.62px;
      }

      .cls-11 {
        fill: url(#_名称未設定グラデーション_50-10);
      }

      .cls-12 {
        fill: url(#_名称未設定グラデーション_50-11);
      }

      .cls-13 {
        fill: url(#_名称未設定グラデーション_50-9);
      }

      .cls-14 {
        fill: url(#_名称未設定グラデーション_50-6);
      }

      .cls-15 {
        fill: url(#_名称未設定グラデーション_232-2);
      }

      .cls-16 {
        fill: url(#_名称未設定グラデーション_50-12);
      }

      .cls-17 {
        fill: url(#_名称未設定グラデーション_50-13);
      }
    </style>
    <linearGradient id="_名称未設定グラデーション_232" data-name="名称未設定グラデーション 232" x1="14.95" y1="126.7" x2="41.84" y2="157.74" gradientUnits="userSpaceOnUse">
      <stop offset="0" stop-color="#28b800"/>
      <stop offset=".2" stop-color="#38c014" stop-opacity=".93"/>
      <stop offset=".55" stop-color="#65d84b" stop-opacity=".73"/>
      <stop offset="1" stop-color="#adfea4" stop-opacity=".4"/>
      <stop offset="1" stop-color="#aeffa5" stop-opacity=".4"/>
    </linearGradient>
    <linearGradient id="_名称未設定グラデーション_232-2" data-name="名称未設定グラデーション 232" x1="-.34" y1="109.16" x2="28.29" y2="142.21" gradientTransform="translate(159.68 34.82) rotate(-145.58) scale(1 -1)" xlink:href="#_名称未設定グラデーション_232"/>
    <linearGradient id="_名称未設定グラデーション_232-3" data-name="名称未設定グラデーション 232" x1="34.31" y1="48.89" x2="34.31" y2="170.6" xlink:href="#_名称未設定グラデーション_232"/>
    <linearGradient id="_名称未設定グラデーション_50" data-name="名称未設定グラデーション 50" x1="51.02" y1="0" x2="51.02" y2="52.1" gradientTransform="translate(102.02 102.05) rotate(-179.99)" gradientUnits="userSpaceOnUse">
      <stop offset="0" stop-color="#feffe6" stop-opacity=".1"/>
      <stop offset=".22" stop-color="#fefee6" stop-opacity=".28"/>
      <stop offset=".7" stop-color="#fefce6" stop-opacity=".72"/>
      <stop offset="1" stop-color="#fffce6"/>
    </linearGradient>
    <linearGradient id="_名称未設定グラデーション_50-2" data-name="名称未設定グラデーション 50" x1="51.02" y1="0" x2="51.02" y2="52.1" gradientTransform="translate(13.36 124.14) rotate(-90)" xlink:href="#_名称未設定グラデーション_50"/>
    <linearGradient id="_名称未設定グラデーション_50-3" data-name="名称未設定グラデーション 50" x1="51.02" y1="0" x2="51.02" y2="52.1" gradientTransform="translate(4.42 116.21) rotate(-90)" xlink:href="#_名称未設定グラデーション_50"/>
    <linearGradient id="_名称未設定グラデーション_50-4" data-name="名称未設定グラデーション 50" x1="51.02" y1="0" x2="51.02" y2="52.1" gradientTransform="translate(.18 105.04) rotate(-90)" xlink:href="#_名称未設定グラデーション_50"/>
    <linearGradient id="_名称未設定グラデーション_50-5" data-name="名称未設定グラデーション 50" x1="51.02" y1="0" x2="51.02" y2="52.1" gradientTransform="translate(-23.34 16.11)" xlink:href="#_名称未設定グラデーション_50"/>
    <linearGradient id="_名称未設定グラデーション_50-6" data-name="名称未設定グラデーション 50" x1="51.02" y1="0" x2="51.02" y2="52.1" gradientTransform="translate(-16.55 6.27)" xlink:href="#_名称未設定グラデーション_50"/>
    <linearGradient id="_名称未設定グラデーション_50-7" data-name="名称未設定グラデーション 50" x1="51.02" y1="0" x2="51.02" y2="52.1" gradientTransform="translate(-5.97 .72)" xlink:href="#_名称未設定グラデーション_50"/>
    <linearGradient id="_名称未設定グラデーション_50-8" data-name="名称未設定グラデーション 50" x1="51.02" y1="0" x2="51.02" y2="52.1" gradientTransform="translate(83.05 -24.24) rotate(90)" xlink:href="#_名称未設定グラデーション_50"/>
    <linearGradient id="_名称未設定グラデーション_50-9" data-name="名称未設定グラデーション 50" x1="51.02" y1="0" x2="51.02" y2="52.1" gradientTransform="translate(93.63 -18.68) rotate(90)" xlink:href="#_名称未設定グラデーション_50"/>
    <linearGradient id="_名称未設定グラデーション_50-10" data-name="名称未設定グラデーション 50" x1="51.02" y1="0" x2="51.02" y2="52.1" gradientTransform="translate(100.41 -8.85) rotate(90)" xlink:href="#_名称未設定グラデーション_50"/>
    <linearGradient id="_名称未設定グラデーション_50-11" data-name="名称未設定グラデーション 50" x1="51.02" y1="0" x2="51.02" y2="52.1" gradientTransform="translate(126.82 80.08) rotate(-180)" xlink:href="#_名称未設定グラデーション_50"/>
    <linearGradient id="_名称未設定グラデーション_50-12" data-name="名称未設定グラデーション 50" x1="51.02" y1="0" x2="51.02" y2="52.1" gradientTransform="translate(122.58 91.26) rotate(-180)" xlink:href="#_名称未設定グラデーション_50"/>
    <linearGradient id="_名称未設定グラデーション_50-13" data-name="名称未設定グラデーション 50" x1="51.02" y1="0" x2="51.02" y2="52.1" gradientTransform="translate(113.63 99.18) rotate(-180)" xlink:href="#_名称未設定グラデーション_50"/>
    <radialGradient id="_名称未設定グラデーション_46" data-name="名称未設定グラデーション 46" cx="51.02" cy="47.53" fx="51.02" fy="47.53" r="27.25" gradientUnits="userSpaceOnUse">
      <stop offset="0" stop-color="#845f00"/>
      <stop offset=".49" stop-color="#876100" stop-opacity=".99"/>
      <stop offset=".69" stop-color="#966800" stop-opacity=".96"/>
      <stop offset=".84" stop-color="#ae7600" stop-opacity=".91"/>
      <stop offset=".96" stop-color="#d08800" stop-opacity=".83"/>
      <stop offset="1" stop-color="#de9000" stop-opacity=".8"/>
    </radialGradient>
  </defs>
  <g id="layer1">
    <g id="layer2">
      <g>
        <path class="cls-8" d="M39.15,140.56c3.14,8.15-4.84,23.7-4.84,23.7,0,0-4.35-6.14-10.07-12.75-5.72-6.6-12.65-21.91-12.65-21.91,0,0,22.72-1.62,27.56,10.96Z"/>
        <path class="cls-15" d="M72.69,124.01c-8.34,2.61-15.66,16.19-15.66,16.19,0,0,17.72-1.23,26.17-3.44,8.45-2.21,15.43-10.29,15.43-10.29,0,0-15.43-5.74-25.94-2.46Z"/>
        <path class="cls-10" d="M51.56,49.7c-6.41,34.14,7.38,61.96,5.24,82.52-3.57,34.38-29.74,38.8-45.21,37.33"/>
      </g>
    </g>
    <g>
      <ellipse class="cls-6" cx="51.01" cy="75.99" rx="1.45" ry="26.05"/>
      <ellipse class="cls-3" cx="39.41" cy="73.12" rx="26.05" ry="1.45" transform="translate(-43.65 74.02) rotate(-62.29)"/>
      <ellipse class="cls-4" cx="30.47" cy="65.2" rx="26.05" ry="1.45" transform="translate(-31.63 28.83) rotate(-34.6)"/>
      <ellipse class="cls-7" cx="26.23" cy="54.02" rx="26.05" ry="1.45" transform="translate(-6.31 3.55) rotate(-6.91)"/>
      <ellipse class="cls-2" cx="27.67" cy="42.16" rx="1.45" ry="26.05" transform="translate(-21.56 53.07) rotate(-69.22)"/>
      <ellipse class="cls-14" cx="34.47" cy="32.32" rx="1.45" ry="26.05" transform="translate(-12.77 30.97) rotate(-41.52)"/>
      <ellipse class="cls-9" cx="45.05" cy="26.77" rx="1.45" ry="26.05" transform="translate(-5.09 11.55) rotate(-13.83)"/>
      <ellipse class="cls-1" cx="57" cy="26.78" rx="26.05" ry="1.45" transform="translate(17.35 75.7) rotate(-76.14)"/>
      <ellipse class="cls-13" cx="67.58" cy="32.33" rx="26.05" ry="1.45" transform="translate(-1.44 61.46) rotate(-48.45)"/>
      <ellipse class="cls-11" cx="74.37" cy="42.17" rx="26.05" ry="1.45" transform="translate(-10.12 29.09) rotate(-20.75)"/>
      <ellipse class="cls-12" cx="75.8" cy="54.03" rx="1.45" ry="26.05" transform="translate(13.01 122.75) rotate(-83.06)"/>
      <ellipse class="cls-16" cx="71.56" cy="65.21" rx="1.45" ry="26.05" transform="translate(-22.76 87.04) rotate(-55.37)"/>
      <ellipse class="cls-17" cx="62.61" cy="73.13" rx="1.45" ry="26.05" transform="translate(-26.8 37.45) rotate(-27.68)"/>
    </g>
  </g>
  <g id="layer3">
    <ellipse class="cls-5" cx="51.02" cy="47.53" rx="26.78" ry="27.71"/>
  </g>
</svg>