<?xml version="1.0" encoding="UTF-8"?>
<svg xmlns="http://www.w3.org/2000/svg" xmlns:xlink="http://www.w3.org/1999/xlink" viewBox="0 0 87.84 150.78">
  <defs>
    <style>
      .cls-1 {
        fill: url(#_名称未設定グラデーション_46);
      }

      .cls-2 {
        fill: url(#_名称未設定グラデーション_232);
      }

      .cls-3 {
        fill: none;
        stroke: url(#_名称未設定グラデーション_232-3);
        stroke-linecap: round;
        stroke-miterlimit: 10;
        stroke-width: 1.62px;
      }

      .cls-4 {
        fill: url(#_名称未設定グラデーション_232-2);
      }
    </style>
    <linearGradient id="_名称未設定グラデーション_232" data-name="名称未設定グラデーション 232" x1="4.17" y1="106.88" x2="31.05" y2="137.92" gradientUnits="userSpaceOnUse">
      <stop offset="0" stop-color="#28b800"/>
      <stop offset=".2" stop-color="#38c014" stop-opacity=".93"/>
      <stop offset=".55" stop-color="#65d84b" stop-opacity=".73"/>
      <stop offset="1" stop-color="#adfea4" stop-opacity=".4"/>
      <stop offset="1" stop-color="#aeffa5" stop-opacity=".4"/>
    </linearGradient>
    <linearGradient id="_名称未設定グラデーション_232-2" data-name="名称未設定グラデーション 232" x1="-11.12" y1="89.34" x2="17.5" y2="122.38" gradientTransform="translate(128.8 25.25) rotate(-145.58) scale(1 -1)" xlink:href="#_名称未設定グラデーション_232"/>
    <linearGradient id="_名称未設定グラデーション_232-3" data-name="名称未設定グラデーション 232" x1="23.53" y1="29.07" x2="23.53" y2="150.78" xlink:href="#_名称未設定グラデーション_232"/>
    <radialGradient id="_名称未設定グラデーション_46" data-name="名称未設定グラデーション 46" cx="40.23" cy="27.71" fx="40.23" fy="27.71" r="27.25" gradientUnits="userSpaceOnUse">
      <stop offset="0" stop-color="#845f00"/>
      <stop offset=".49" stop-color="#876100" stop-opacity=".99"/>
      <stop offset=".69" stop-color="#966800" stop-opacity=".96"/>
      <stop offset=".84" stop-color="#ae7600" stop-opacity=".91"/>
      <stop offset=".96" stop-color="#d08800" stop-opacity=".83"/>
      <stop offset="1" stop-color="#de9000" stop-opacity=".8"/>
    </radialGradient>
  </defs>
  <g id="layer1">
    <g id="layer2">
      <g>
        <path class="cls-2" d="M28.37,120.74c3.14,8.15-4.84,23.7-4.84,23.7,0,0-4.35-6.14-10.07-12.75-5.72-6.6-12.65-21.91-12.65-21.91,0,0,22.72-1.62,27.56,10.96Z"/>
        <path class="cls-4" d="M61.91,104.19c-8.34,2.61-15.66,16.19-15.66,16.19,0,0,17.72-1.23,26.17-3.44,8.45-2.21,15.43-10.29,15.43-10.29,0,0-15.43-5.74-25.94-2.46Z"/>
        <path class="cls-3" d="M40.78,29.88c-6.41,34.14,7.38,61.96,5.24,82.52-3.57,34.38-29.74,38.8-45.21,37.33"/>
      </g>
    </g>
  </g>
  <g id="layer3">
    <ellipse class="cls-1" cx="40.23" cy="27.71" rx="26.78" ry="27.71"/>
  </g>
</svg>