<?xml version="1.0" encoding="UTF-8"?>
<svg id="stem" xmlns="http://www.w3.org/2000/svg" version="1.1" xmlns:xlink="http://www.w3.org/1999/xlink" viewBox="0 0 300 300">
  <!-- Generator: Adobe Illustrator 29.1.0, SVG Export Plug-In . SVG Version: 2.1.0 Build 142)  -->
  <defs>
    <style>
      .st0 {
        fill: url(#_名称未設定グラデーション_202);
      }

      .st1 {
        fill: url(#_名称未設定グラデーション_201);
      }

      .st2 {
        fill: url(#_名称未設定グラデーション_191);
      }

      .st3 {
        fill: url(#_名称未設定グラデーション_192);
      }

      .st4 {
        fill: none;
        stroke: url(#_名称未設定グラデーション_19);
        stroke-linecap: round;
        stroke-miterlimit: 10;
        stroke-width: 5.7px;
      }

      .st5 {
        fill: url(#_名称未設定グラデーション_20);
      }
    </style>
    <linearGradient id="_名称未設定グラデーション_19" data-name="名称未設定グラデーション 19" x1="136" y1="203.9" x2="154.6" y2="203.9" gradientUnits="userSpaceOnUse">
      <stop offset="0" stop-color="#82ff87" stop-opacity=".4"/>
      <stop offset="1" stop-color="#01c300"/>
    </linearGradient>
    <linearGradient id="_名称未設定グラデーション_191" data-name="名称未設定グラデーション 19" x1="121.1" y1="208.7" x2="138.2" y2="195.3" xlink:href="#_名称未設定グラデーション_19"/>
    <linearGradient id="_名称未設定グラデーション_192" data-name="名称未設定グラデーション 19" x1="92.6" y1="213.8" x2="109.7" y2="200.4" gradientTransform="translate(256) rotate(-180) scale(1 -1)" xlink:href="#_名称未設定グラデーション_19"/>
    <linearGradient id="_名称未設定グラデーション_20" data-name="名称未設定グラデーション 20" x1="147.3" y1="210.5" x2="147.3" y2="128.5" gradientTransform="translate(0 300) scale(1 -1)" gradientUnits="userSpaceOnUse">
      <stop offset="0" stop-color="#ffca74" stop-opacity=".4"/>
      <stop offset="1" stop-color="#ff7705"/>
    </linearGradient>
    <linearGradient id="_名称未設定グラデーション_201" data-name="名称未設定グラデーション 20" x1="158.5" y1="211.4" x2="158.5" y2="129.4" gradientTransform="translate(-40.2 251.4) rotate(15.8) scale(1 -1)" xlink:href="#_名称未設定グラデーション_20"/>
    <linearGradient id="_名称未設定グラデーション_202" data-name="名称未設定グラデーション 20" x1="136.8" y1="210.8" x2="136.8" y2="128.8" gradientTransform="translate(44.4 327.6) rotate(-13.7) scale(1 -1)" xlink:href="#_名称未設定グラデーション_20"/>
  </defs>
  <g>
    <path class="st4" d="M138.9,237.6c7.6-5.4,17.6-42.6,10.4-67.4"/>
    <path class="st2" d="M134.4,220.9c-13.3-13.3-25-44.7-25-44.7,0,0,32,14.8,36.5,31.9s-4.5,26.5-4.5,26.5c0,0,1.3-5.5-7-13.7Z"/>
    <path class="st3" d="M150.1,225.9c13.3-13.3,25-44.7,25-44.7,0,0-32,14.8-36.5,31.9s4.5,26.5,4.5,26.5c0,0-1.3-5.5,7-13.7Z"/>
  </g>
  <text/>
  <path class="st5" d="M164.7,144.5c0,22.6-9.8,27-18.7,27s-16.1-5.9-16.1-28.5,16.1-53.5,16.1-53.5c0,0,18.7,32.4,18.7,55Z"/>
  <path class="st1" d="M171.6,148.7c-6.2,21.8-16.8,23.3-25.3,20.9-8.5-2.4-13.9-10-7.7-31.8,6.2-21.8,30-47.1,30-47.1,0,0,9.2,36.2,3,58Z"/>
  <path class="st0" d="M157.3,139.7c5.4,22-3.2,28.6-11.8,30.7-8.6,2.1-17-1.9-22.4-23.9s3-55.8,3-55.8c0,0,25.8,27,31.2,49Z"/>
</svg>