<?xml version="1.0" encoding="UTF-8"?>
<svg id="stem" xmlns="http://www.w3.org/2000/svg" xmlns:xlink="http://www.w3.org/1999/xlink" viewBox="0 0 65.71 73.05">
  <defs>
    <style>
      .cls-1 {
        fill: url(#_名称未設定グラデーション_19-3);
      }

      .cls-2 {
        fill: none;
        stroke: url(#_名称未設定グラデーション_19);
        stroke-linecap: round;
        stroke-miterlimit: 10;
        stroke-width: 5.67px;
      }

      .cls-3 {
        fill: url(#_名称未設定グラデーション_19-2);
      }
    </style>
    <linearGradient id="_名称未設定グラデーション_19" data-name="名称未設定グラデーション 19" x1="26.64" y1="36.52" x2="45.22" y2="36.52" gradientUnits="userSpaceOnUse">
      <stop offset="0" stop-color="#82ff87" stop-opacity=".4"/>
      <stop offset="1" stop-color="#01c300"/>
    </linearGradient>
    <linearGradient id="_名称未設定グラデーション_19-2" data-name="名称未設定グラデーション 19" x1="11.69" y1="41.41" x2="28.76" y2="27.97" xlink:href="#_名称未設定グラデーション_19"/>
    <linearGradient id="_名称未設定グラデーション_19-3" data-name="名称未設定グラデーション 19" x1="-16.81" y1="46.48" x2=".26" y2="33.04" gradientTransform="translate(37.21) rotate(-180) scale(1 -1)" xlink:href="#_名称未設定グラデーション_19"/>
  </defs>
  <path class="cls-2" d="M29.47,70.21c7.63-5.37,17.63-42.55,10.43-67.38"/>
  <path class="cls-3" d="M25.01,53.52C11.68,40.26,0,8.8,0,8.8c0,0,32.01,14.83,36.51,31.9,2.98,11.3-4.5,26.53-4.5,26.53,0,0,1.29-5.47-7-13.71Z"/>
  <path class="cls-1" d="M40.7,58.59c13.33-13.26,25.01-44.72,25.01-44.72,0,0-32.01,14.83-36.51,31.9-2.98,11.3,4.5,26.53,4.5,26.53,0,0-1.29-5.47,7-13.71Z"/>
</svg>