<?xml version="1.0" encoding="UTF-8"?>
<svg id="tyurippu" xmlns="http://www.w3.org/2000/svg" xmlns:xlink="http://www.w3.org/1999/xlink" viewBox="0 0 179.56 63.3">
  <defs>
    <style>
      .cls-1 {
        fill: url(#_名称未設定グラデーション_39);
      }

      .cls-2 {
        fill: url(#_名称未設定グラデーション_43-2);
      }

      .cls-3 {
        fill: #fff;
      }

      .cls-4 {
        fill: url(#_名称未設定グラデーション_39-2);
      }

      .cls-5 {
        fill: url(#_名称未設定グラデーション_43);
      }
    </style>
    <linearGradient id="_名称未設定グラデーション_43" data-name="名称未設定グラデーション 43" x1="108.56" y1="0" x2="108.56" y2="46.73" gradientUnits="userSpaceOnUse">
      <stop offset="0" stop-color="#fff" stop-opacity="0"/>
      <stop offset=".26" stop-color="#fff" stop-opacity=".31"/>
      <stop offset=".53" stop-color="#fff" stop-opacity=".6"/>
      <stop offset=".75" stop-color="#fff" stop-opacity=".82"/>
      <stop offset=".91" stop-color="#fff" stop-opacity=".95"/>
      <stop offset="1" stop-color="#fff"/>
    </linearGradient>
    <linearGradient id="_名称未設定グラデーション_43-2" data-name="名称未設定グラデーション 43" x1="74.3" y1="40.59" x2="173" y2="40.59" xlink:href="#_名称未設定グラデーション_43"/>
    <linearGradient id="_名称未設定グラデーション_39" data-name="名称未設定グラデーション 39" x1="131.71" y1="31.77" x2="131.71" y2="43.49" gradientTransform="translate(-9.44 60.21) rotate(-28.75)" gradientUnits="userSpaceOnUse">
      <stop offset="0" stop-color="#fff" stop-opacity=".4"/>
      <stop offset="1" stop-color="#fff"/>
    </linearGradient>
    <linearGradient id="_名称未設定グラデーション_39-2" data-name="名称未設定グラデーション 39" x1="138.27" y1="31.72" x2="138.27" y2="43.45" xlink:href="#_名称未設定グラデーション_39"/>
  </defs>
  <path class="cls-3" d="M3.68,31.83c-.35,0-.75-.17-1.2-.5-.45-.33-.87-.73-1.26-1.2-.39-.47-.66-.87-.82-1.22-.21-.53-.35-1.28-.4-2.24l.64-.2c.51.61.96,1.11,1.36,1.5.4.39.87.58,1.4.58.59,0,1.37-.03,2.34-.1.97-.07,2.03-.15,3.16-.26,1.13-.11,2.25-.22,3.34-.34,1.09-.12,2.09-.23,2.98-.34.89-.11,1.58-.19,2.06-.24,1.01-.11,2.02-.21,3.02-.32,1-.11,1.93-.21,2.78-.3.85-.09,1.55-.18,2.08-.26.85-.13,1.49-.25,1.92-.34.43-.09.76-.17,1-.22.24-.05.47-.08.68-.08.61,0,1.24.09,1.88.28.64.19,1.18.45,1.62.78.44.33.66.71.66,1.14,0,.4-.1.71-.3.92-.2.21-.53.32-.98.32-.35,0-.92-.06-1.72-.18s-1.72-.18-2.76-.18c-.56,0-1.24.02-2.04.06-.8.04-1.65.08-2.54.12-.89.04-1.77.09-2.64.14-.87.05-1.65.12-2.34.2-.72.05-1.6.15-2.64.28-1.04.13-2.11.29-3.2.46-1.09.17-2.09.34-3,.5-.91.16-1.59.31-2.04.44-.56.13-1.07.3-1.54.5-.47.2-.97.3-1.5.3ZM3.68,21.83c1.71-.32,3.45-.71,5.24-1.18,1.79-.47,3.49-.96,5.12-1.48,1.63-.52,3.04-1.01,4.24-1.48,1.2-.47,2.03-.86,2.48-1.18.35-.27.48-.57.4-.9-.08-.33-.49-.81-1.24-1.42l.48-.52c.91.16,1.65.39,2.22.68.57.29,1.06.59,1.46.88s.79.68,1.18,1.16c.39.48.58.92.58,1.32,0,.24-.13.41-.4.52-.27.11-.59.19-.96.24-.37.05-.72.15-1.04.28-.85.32-1.68.62-2.48.9-.8.28-1.6.53-2.4.76-.8.23-1.64.45-2.52.66-.72.16-1.61.34-2.68.54-1.07.2-2.37.41-3.9.62-1.53.21-3.39.41-5.58.6l-.2-1ZM4.76,46.51c2.19-1.33,4.01-2.71,5.46-4.14,1.45-1.43,2.61-2.97,3.48-4.62.87-1.65,1.48-3.47,1.84-5.46.36-1.99.53-4.21.5-6.66,0-.77-.05-1.43-.16-1.98-.11-.55-.3-1.04-.58-1.48-.28-.44-.7-.86-1.26-1.26l2.04-.72c.59.19,1.17.45,1.76.8.59.35,1.07.7,1.44,1.06.37.36.56.66.56.9,0,.29-.05.55-.14.78-.09.23-.19.51-.28.84-.09.33-.14.81-.14,1.42.05,3.36-.39,6.39-1.34,9.08-.95,2.69-2.45,5.05-4.52,7.06-2.07,2.01-4.77,3.71-8.1,5.1l-.56-.72Z"/>
  <path class="cls-3" d="M35.68,44.38c-.35,0-.73-.15-1.16-.44-.43-.29-.81-.63-1.16-1.02-.35-.39-.6-.71-.76-.98-.19-.43-.31-1.08-.36-1.96l.48-.16c.37.4.79.75,1.24,1.04.45.29.96.44,1.52.44.32,0,.95-.04,1.88-.12.93-.08,2.03-.19,3.3-.32,1.27-.13,2.61-.26,4.02-.38,1.41-.12,2.77-.24,4.08-.36,1.31-.12,2.45-.21,3.44-.26.77-.05,1.31-.13,1.62-.24.31-.11.57-.16.78-.16.35,0,.76.08,1.24.24.48.16.95.37,1.4.62.45.25.83.53,1.12.84.29.31.44.61.44.9,0,.35-.11.63-.32.86-.21.23-.51.34-.88.34-.35,0-.86-.07-1.54-.22-.68-.15-1.51-.3-2.5-.46-.99-.16-2.11-.25-3.36-.28-.77-.03-1.67,0-2.7.06-1.03.07-2.08.15-3.16.26-1.08.11-2.11.24-3.1.4-.99.16-1.83.32-2.52.48-.69.19-1.27.38-1.74.58-.47.2-.9.3-1.3.3ZM46.68,41.26c.19-.85.39-1.83.6-2.92.21-1.09.41-2.19.6-3.28.19-1.09.35-2.07.5-2.92.15-.85.25-1.48.3-1.88,0-.24-.13-.36-.4-.36-.21,0-.58.05-1.1.14-.52.09-1.09.22-1.72.38-.63.16-1.23.32-1.82.48-.59.16-1.07.29-1.44.4-.4.13-.75.28-1.06.44-.31.16-.63.24-.98.24-.29,0-.63-.12-1.02-.36-.39-.24-.75-.55-1.1-.94-.35-.39-.6-.75-.76-1.1-.13-.29-.23-.61-.28-.94-.05-.33-.08-.65-.08-.94l.44-.2c.37.35.8.68,1.28,1,.48.32.92.48,1.32.48.43,0,.98-.04,1.66-.12.68-.08,1.41-.18,2.2-.3.79-.12,1.53-.24,2.22-.36s1.23-.23,1.6-.34c.21-.05.42-.15.62-.3s.39-.29.58-.44c.19-.15.37-.22.56-.22.21,0,.53.09.96.28.43.19.87.42,1.32.7.45.28.83.57,1.14.86.31.29.46.56.46.8,0,.27-.09.5-.28.7-.19.2-.37.4-.56.6-.19.2-.33.45-.44.74-.11.4-.27.99-.48,1.76-.21.77-.44,1.63-.68,2.58-.24.95-.48,1.88-.72,2.8-.24.92-.47,1.74-.68,2.46l-2.76.08Z"/>
  <path class="cls-3" d="M63,33.83c-.4,0-.87-.2-1.4-.6-.53-.4-1.03-.89-1.5-1.46-.47-.57-.79-1.11-.98-1.62-.16-.4-.25-.81-.28-1.22-.03-.41-.04-.83-.04-1.26l.8-.24c.32.48.63.92.92,1.32.29.4.63.72,1.02.96.39.24.87.36,1.46.36.64,0,1.51-.02,2.6-.06,1.09-.04,2.3-.09,3.62-.16,1.32-.07,2.67-.14,4.06-.22,1.39-.08,2.69-.16,3.92-.24,1.23-.08,2.29-.15,3.18-.22.89-.07,1.51-.11,1.86-.14,1.33-.11,2.37-.21,3.12-.3.75-.09,1.37-.14,1.88-.14.61,0,1.2.09,1.76.26.56.17,1.02.41,1.38.72.36.31.54.69.54,1.14,0,.4-.15.71-.46.94-.31.23-.83.34-1.58.34s-1.48-.01-2.28-.04c-.8-.03-1.84-.04-3.12-.04-.53,0-1.33.02-2.4.06-1.07.04-2.27.1-3.6.18-1.33.08-2.67.16-4,.24-1.33.08-2.56.16-3.68.24-1.12.08-1.97.16-2.56.24-.83.08-1.47.19-1.92.34-.45.15-.85.29-1.18.42-.33.13-.71.2-1.14.2Z"/>
  <path class="cls-3" d="M100.82,35.85c-.35,0-.67-.15-.96-.44-.29-.29-.52-.69-.68-1.18-.16-.49-.24-1.02-.24-1.58s.07-1.22.2-2.06c.13-.84.21-2.03.24-3.58,0-.64,0-1.44-.02-2.4-.01-.96-.03-1.91-.06-2.86-.03-.95-.08-1.66-.16-2.14-.03-.45-.09-.79-.18-1-.09-.21-.3-.4-.62-.56-.29-.16-.62-.29-.98-.38-.36-.09-.75-.19-1.18-.3v-.76c.43-.16.87-.29,1.32-.4.45-.11.87-.16,1.24-.16.4,0,.84.09,1.32.26.48.17.95.39,1.42.66.47.27.85.56,1.16.88.31.32.46.63.46.92s-.05.56-.16.8c-.11.24-.21.51-.32.8-.11.29-.19.69-.24,1.2-.03.35-.05.91-.06,1.7-.01.79-.02,1.69-.02,2.7v3.04c0,1.01,0,1.93.02,2.74.01.81.02,1.42.02,1.82,0,.83-.15,1.41-.44,1.76-.29.35-.65.52-1.08.52Z"/>
  <path class="cls-5" d="M100.38,45.93c3.87-2.08,6.78-4.52,8.74-7.32,1.96-2.8,3.07-6.23,3.34-10.28.05-.85.1-1.73.14-2.64.04-.91.06-1.8.06-2.68s0-1.73-.02-2.54c-.01-.81-.05-15.71-.1-16.35-.03-.37-.08-.69-.16-.96-.08-.27-.31-.51-.68-.72-.24-.16-.58-.29-1.02-.38-.44-.09-.9-.18-1.38-.26l-.04-.76c.45-.27.97-.51,1.54-.72.57-.21,1.06-.32,1.46-.32s.85.09,1.36.26c.51.17,1,.41,1.48.7.48.29.87.59,1.18.88s.46.56.46.8c0,.29-.06.55-.18.76s-.25.44-.38.68c-.13.24-.21,14.74-.24,15.17-.03.59-.05,1.28-.08,2.08-.03.8-.06,1.63-.1,2.48-.04.85-.08,1.68-.12,2.48-.04.8-.07,1.51-.1,2.12-.21,4.69-1.55,8.52-4.02,11.48-2.47,2.96-6.02,5.24-10.66,6.84l-.48-.8Z"/>
  <path class="cls-3" d="M125.08,46.37c2.08-1.07,3.99-2.3,5.74-3.7,1.75-1.4,3.31-2.86,4.68-4.38s2.55-3,3.52-4.44c.97-1.44,1.71-2.75,2.2-3.94.49-1.19.74-2.1.74-2.74,0-.35-.17-.66-.5-.94-.33-.28-.86-.58-1.58-.9l.16-.56c.27-.03.59-.05.96-.08.37-.03.72-.03,1.04,0,.4.05.82.19,1.26.42.44.23.85.51,1.24.86.39.35.69.69.92,1.04.23.35.34.67.34.96,0,.35-.15.66-.44.94-.29.28-.56.65-.8,1.1-.77,1.65-1.74,3.31-2.9,4.98-1.16,1.67-2.53,3.26-4.1,4.78-1.57,1.52-3.36,2.9-5.36,4.14-2,1.24-4.23,2.29-6.68,3.14l-.44-.68Z"/>
  <path class="cls-2" d="M74.3,62.42c1.58-.8,21.84-.09,41-4.03,15.34-3.16,29.6-10.7,35.78-14.01,5.82-3.12,12.9-13.58,14.27-15.99,1.25-2.2,2.11-4.49,2.7-6.78.08-.27.07-.43-.02-.5-.09-.07-.23-.1-.42-.1-.35,0-.89.04-1.64.12-.75.08-1.62.19-2.62.34-1,.15-2.04.3-3.12.46s-2.13.32-3.14.48c-1.01.16-1.91.31-2.68.46-.77.15-1.35.27-1.72.38-.53.11-1.03.29-1.48.56-.45.27-.89.4-1.32.4-.45,0-.94-.19-1.46-.58-.52-.39-.99-.83-1.42-1.34-.43-.51-.71-.95-.84-1.32-.11-.35-.19-.7-.24-1.06-.05-.36-.09-.82-.12-1.38l.72-.28c.4.51.84,1,1.32,1.48.48.48,1.08.72,1.8.72.43,0,1.07-.03,1.94-.08.87-.05,1.87-.13,3-.24,1.13-.11,2.3-.23,3.5-.36,1.2-.13,2.35-.26,3.46-.38,1.11-.12,2.07-.24,2.88-.36s1.38-.21,1.7-.26c.4-.11.71-.23.94-.36.23-.13.43-.25.6-.36.17-.11.39-.16.66-.16.35,0,.78.14,1.3.42.52.28,1.04.64,1.56,1.08.52.44.95.88,1.3,1.32.35.44.52.81.52,1.1,0,.32-.11.61-.34.86-.23.25-.48.51-.76.78-.28.27-.53.63-.74,1.08-1.44,3.31-11,17.93-18.41,21.79-8,4.17-22.69,10.79-37.57,13.53-19.03,3.5-38.05,2.63-40.33,3.46l-.56-.88Z"/>
  <path class="cls-3" d="M175.28,19.77c-1.17,0-2.18-.42-3.02-1.26s-1.26-1.85-1.26-3.02.42-2.21,1.26-3.04c.84-.83,1.85-1.24,3.02-1.24s2.21.41,3.04,1.24c.83.83,1.24,1.84,1.24,3.04s-.41,2.18-1.24,3.02c-.83.84-1.84,1.26-3.04,1.26Z"/>
  <path class="cls-3" d="M175.28,18.37c.8,0,1.47-.28,2.02-.84s.82-1.24.82-2.04-.27-1.47-.82-2.02c-.55-.55-1.22-.82-2.02-.82s-1.48.27-2.04.82c-.56.55-.84,1.22-.84,2.02s.28,1.48.84,2.04c.56.56,1.24.84,2.04.84Z"/>
  <path id="petal" class="cls-1" d="M127.28,30.42c1.56,2.84.63,4.06-.49,4.67s-2.42.37-3.97-2.47-1.66-7.81-1.66-7.81c0,0,4.57,2.77,6.13,5.61Z"/>
  <path id="petal-2" data-name="petal" class="cls-4" d="M133.01,27.23c1.56,2.84.63,4.06-.49,4.67s-2.42.37-3.97-2.47-1.66-7.81-1.66-7.81c0,0,4.57,2.77,6.13,5.61Z"/>
</svg>